<svg width="600" height="450" viewBox="0 0 600 450" fill="none" xmlns="http://www.w3.org/2000/svg">
<g clip-path="url(#clip0)">
<path opacity="0.3" d="M58.0039 387.26L51.0186 386.385L23.7791 400.972C16.8707 399.046 8.06952 399.641 2.26611 402.723C-2.03841 405.044 -3.69104 408.161 -2.71099 411.138C-3.46044 414.01 -1.75016 417.013 2.46788 419.193C9.58763 422.879 21.0888 422.809 28.1509 419.027C31.6963 417.136 33.445 414.649 33.4162 412.224L33.3201 409.106C33.2937 408.507 33.1606 407.916 32.9262 407.355L35.8087 405.832V403.757V403.651H39.652V401.62H43.4953V399.58H47.3386V397.54H51.182V395.508H55.3328L56.6203 394.817L58.0423 389.467L58.0039 387.26Z" fill="#EA9B00"/>
<path opacity="0.1" d="M18.1672 403.686L26.882 408.196L35.7792 403.441L35.7504 401.375L35.6736 401.419L35.664 401.27L39.6226 401.244L39.6034 399.203L43.4755 399.186L43.4563 397.146L47.3284 397.12L47.3092 395.088L51.191 395.062L51.1621 393.022L55.3129 392.996L56.6004 392.304L58.0225 386.963L57.9936 384.896L57.3115 386.875L51.0372 386.113L18.1672 403.686Z" fill="#3F2343"/>
<path d="M26.8532 406.129L35.7504 401.375L35.6448 399.203L39.5938 399.177L39.4977 397.137L43.4563 397.111L43.3506 395.079L47.3092 395.053L47.2131 393.013L51.1622 392.996L51.0661 390.955L55.2841 390.929L56.5812 390.237L57.9937 384.896L51.0084 384.038L18.1384 401.62L26.8532 406.129Z" fill="#142D4B" stroke="#EA9B00" stroke-width="0.8"/>
<path d="M32.7815 402.96C31.7069 401.644 30.3253 400.561 28.7364 399.79C27.4147 399.117 26.0165 398.576 24.5664 398.179L18.1384 401.62L26.8532 406.129L32.7815 402.96Z" fill="#EA9B00" stroke="#EA9B00" stroke-width="0.8"/>
<path opacity="0.1" d="M2.46727 416.829C9.58702 420.515 21.0882 420.437 28.1503 416.663C31.6957 414.771 33.4444 412.285 33.4156 409.851L33.3195 406.742L32.743 407.329C31.6729 405.538 30.0356 404.083 28.0446 403.152C20.9248 399.466 9.42367 399.536 2.36157 403.31C-4.70053 407.084 -4.65248 413.143 2.46727 416.829ZM12.7578 411.33C14.6122 412.285 14.6218 413.861 12.7578 414.833C11.7216 415.328 10.5706 415.59 9.40068 415.598C8.23073 415.606 7.07573 415.358 6.03194 414.877C4.17754 413.922 4.15833 412.346 6.03194 411.374C7.06926 410.882 8.21982 410.622 9.38907 410.614C10.5583 410.607 11.7128 410.852 12.7578 411.33V411.33Z" fill="#908E9B"/>
<path opacity="0.1" d="M35.664 401.27L39.6226 401.244L39.6034 399.203" fill="#A681A8"/>
<path opacity="0.1" d="M2.46727 416.829C9.58702 420.515 21.0882 420.437 28.1503 416.663C31.6957 414.771 33.4444 412.285 33.4156 409.851L33.3195 406.742L32.743 407.329C31.6729 405.538 30.0356 404.083 28.0446 403.152C20.9248 399.466 9.42367 399.536 2.36157 403.31C-4.70053 407.084 -4.65248 413.143 2.46727 416.829ZM12.7578 411.33C14.6122 412.285 14.6218 413.861 12.7578 414.833C11.7216 415.328 10.5706 415.59 9.40068 415.598C8.23073 415.606 7.07573 415.358 6.03194 414.877C4.17754 413.922 4.15833 412.346 6.03194 411.374C7.06926 410.882 8.21982 410.622 9.38907 410.614C10.5583 410.607 11.7128 410.852 12.7578 411.33V411.33Z" fill="#908E9B"/>
<path opacity="0.5" d="M2.60569 416.913C9.72544 420.6 21.2266 420.521 28.2887 416.747C31.8341 414.856 33.5829 412.369 33.554 409.935L33.4579 406.827L32.8814 407.413C31.8113 405.623 30.174 404.167 28.183 403.237C21.0632 399.551 9.5621 399.621 2.5 403.394C-4.5621 407.168 -4.51406 413.227 2.60569 416.913ZM12.8962 411.415C14.7506 412.369 14.7602 413.945 12.8962 414.917C11.8601 415.412 10.7091 415.675 9.5391 415.682C8.36915 415.69 7.21415 415.443 6.17037 414.961C4.31597 414.007 4.29675 412.43 6.17037 411.459C7.20768 410.967 8.35825 410.706 9.52749 410.699C10.6967 410.691 11.8513 410.937 12.8962 411.415Z" fill="#EA9B00"/>
<path d="M2.38104 413.887C9.50079 417.573 21.0019 417.503 28.064 413.721C35.1261 409.938 35.0781 403.897 27.9583 400.21C20.8386 396.524 9.33745 396.594 2.27535 400.377C-4.78676 404.159 -4.74832 410.201 2.38104 413.887ZM12.6715 408.388C14.5259 409.352 14.5355 410.919 12.6715 411.891C11.6401 412.375 10.4984 412.631 9.33837 412.638C8.17837 412.646 7.03267 412.405 5.99376 411.935C4.13936 410.971 4.12014 409.395 5.99376 408.432C7.02367 407.949 8.1638 407.693 9.32211 407.686C10.4804 407.678 11.6245 407.919 12.6619 408.388H12.6715Z" fill="#162535" stroke="#908E9B" stroke-width="0.8"/>
<path d="M27.9485 400.21C20.8287 396.524 9.32761 396.594 2.26551 400.377C-4.7966 404.159 -4.74856 410.201 2.3712 413.887C4.05703 414.74 5.86002 415.385 7.73263 415.805C9.13129 416.123 10.5541 416.345 11.9891 416.47C17.6484 416.978 23.7016 416.05 28.0542 413.721C35.1163 409.912 35.049 403.897 27.9485 400.21ZM12.6809 411.908C11.6495 412.392 10.5077 412.648 9.34775 412.656C8.18775 412.663 7.04205 412.422 6.00314 411.952C4.14873 410.989 4.12952 409.413 6.00314 408.45C7.04045 407.958 8.19101 407.698 9.36026 407.69C10.5295 407.682 11.684 407.928 12.7289 408.406C14.5161 409.352 14.5257 410.919 12.6809 411.908Z" fill="#142D4B" stroke="#EA9B00" stroke-width="0.8" stroke-linecap="round" stroke-linejoin="round"/>
<path opacity="0.5" d="M91.9605 219.418L33.0808 188.422V189.105L91.8837 220.092C110.152 229.49 110.178 229.265 91.9605 219.418Z" stroke="#EA9B00"/>
<path opacity="0.5" d="M60.6759 162.592C61.3082 162.886 62.0079 163.039 62.7176 163.039C63.4274 163.039 64.1271 162.886 64.7594 162.592L64.8939 162.513L107.382 184.919V184.237L65.3743 162.102C65.7971 161.55 65.5857 160.902 64.7402 160.447C64.1078 160.153 63.4082 160 62.6984 160C61.9887 160 61.289 160.153 60.6567 160.447C60.4097 160.523 60.1954 160.668 60.0443 160.862C59.8932 161.056 59.8131 161.288 59.8152 161.526C59.8173 161.763 59.9017 161.994 60.0562 162.186C60.2107 162.377 60.4276 162.519 60.6759 162.592V162.592Z" stroke="#EA9B00"/>
<path opacity="0.5" d="M577.535 440.924H482.48L413.839 404.754H413.762H356.909L279.207 363.802L287.413 359.477L361.32 398.388L361.397 398.432H426.608L458.373 415.199C457.556 415.795 457.653 416.626 458.661 417.161C459.295 417.45 459.994 417.601 460.703 417.601C461.412 417.601 462.111 417.45 462.745 417.161C462.991 417.084 463.205 416.939 463.357 416.746C463.508 416.552 463.59 416.321 463.59 416.084C463.59 415.846 463.508 415.615 463.357 415.422C463.205 415.229 462.991 415.083 462.745 415.007C462.172 414.745 461.544 414.596 460.903 414.57C460.262 414.545 459.623 414.643 459.026 414.858L426.867 397.906H426.791H361.579L350.635 392.145H437.792L506.703 355.826C507.302 356.04 507.943 356.136 508.585 356.109C509.228 356.082 509.857 355.932 510.431 355.668C510.679 355.594 510.894 355.45 511.047 355.257C511.2 355.065 511.282 354.833 511.282 354.595C511.282 354.358 511.2 354.126 511.047 353.934C510.894 353.741 510.679 353.597 510.431 353.523C509.797 353.229 509.096 353.076 508.384 353.076C507.673 353.076 506.972 353.229 506.338 353.523C505.329 354.057 505.233 354.889 506.05 355.484L437.619 391.55H349.511L321.945 377.024L332.783 371.315H352L369.986 361.788C370.583 362.004 371.222 362.102 371.863 362.077C372.504 362.051 373.132 361.902 373.705 361.64C373.951 361.563 374.165 361.418 374.317 361.224C374.468 361.031 374.549 360.8 374.549 360.563C374.549 360.325 374.468 360.094 374.317 359.901C374.165 359.708 373.951 359.562 373.705 359.486C373.071 359.196 372.372 359.045 371.663 359.045C370.954 359.045 370.255 359.196 369.621 359.486C368.612 360.02 368.516 360.86 369.333 361.447L351.807 370.667H333.888L375.828 348.593H414.55L436.149 359.976C435.342 360.571 435.429 361.403 436.447 361.937C437.079 362.231 437.779 362.384 438.489 362.384C439.198 362.384 439.898 362.231 440.531 361.937C440.778 361.863 440.994 361.719 441.146 361.526C441.299 361.334 441.382 361.102 441.382 360.865C441.382 360.627 441.299 360.395 441.146 360.203C440.994 360.01 440.778 359.867 440.531 359.792C439.955 359.53 439.327 359.381 438.685 359.354C438.043 359.327 437.402 359.423 436.802 359.634L414.809 348.042L414.732 347.998H375.598L321.301 376.612L298.241 364.45H310.982L321.243 359.048C321.845 359.273 322.493 359.377 323.143 359.353C323.794 359.329 324.43 359.177 325.01 358.908C325.258 358.833 325.473 358.689 325.626 358.497C325.779 358.304 325.861 358.073 325.861 357.835C325.861 357.597 325.779 357.366 325.626 357.173C325.473 356.981 325.258 356.837 325.01 356.762C324.377 356.471 323.677 356.319 322.968 356.319C322.259 356.319 321.559 356.471 320.926 356.762C319.966 357.288 319.821 358.111 320.6 358.706L310.809 363.864H297.098L288.056 359.1L307.379 348.917L301.325 345.73L334.666 328.157H345.783L359.062 335.162C358.245 335.748 358.331 336.58 359.35 337.123C359.984 337.413 360.683 337.563 361.392 337.563C362.101 337.563 362.8 337.413 363.434 337.123C363.68 337.046 363.894 336.901 364.045 336.708C364.197 336.515 364.278 336.283 364.278 336.046C364.278 335.809 364.197 335.577 364.045 335.384C363.894 335.191 363.68 335.046 363.434 334.969C362.86 334.707 362.233 334.558 361.592 334.533C360.951 334.507 360.311 334.605 359.715 334.82L346.042 327.64L345.966 327.597H334.513L310.3 340.354V328.647L333.014 316.678C333.61 316.893 334.249 316.991 334.89 316.966C335.531 316.94 336.159 316.791 336.732 316.529C336.978 316.452 337.192 316.307 337.344 316.114C337.495 315.921 337.577 315.69 337.577 315.452C337.577 315.215 337.495 314.983 337.344 314.79C337.192 314.597 336.978 314.452 336.732 314.375C336.099 314.084 335.4 313.932 334.69 313.932C333.981 313.932 333.282 314.084 332.648 314.375C331.63 314.918 331.544 315.75 332.36 316.337L309.646 328.306V340.678L300.711 345.389L269.263 328.814L283.848 321.126H302.767L332.668 305.365H355.363L386.897 322.002C386.09 322.597 386.176 323.429 387.195 323.963C387.827 324.257 388.527 324.41 389.237 324.41C389.946 324.41 390.646 324.257 391.278 323.963C391.526 323.888 391.742 323.745 391.894 323.552C392.047 323.36 392.129 323.128 392.129 322.89C392.129 322.653 392.047 322.421 391.894 322.229C391.742 322.036 391.526 321.892 391.278 321.818C390.705 321.556 390.077 321.407 389.437 321.381C388.796 321.356 388.156 321.454 387.56 321.669L355.612 304.831L355.535 304.788H332.476L302.575 320.548H284.943L372.571 274.378H431.912C431.912 274.177 431.912 273.984 431.912 273.783H372.388L268.6 328.516L256.82 322.299L361.618 267.076L361.771 266.988V233.952L397.629 215.057C398.226 215.272 398.865 215.37 399.506 215.345C400.147 215.319 400.774 215.17 401.348 214.908C401.594 214.832 401.808 214.686 401.96 214.493C402.111 214.3 402.193 214.069 402.193 213.831C402.193 213.594 402.111 213.363 401.96 213.169C401.808 212.976 401.594 212.831 401.348 212.754C400.715 212.463 400.015 212.311 399.306 212.311C398.597 212.311 397.897 212.463 397.264 212.754C396.246 213.289 396.159 214.12 396.976 214.716L361.281 233.523L361.118 233.611V266.621L256.166 321.923L243.791 315.382L305.284 282.985L305.447 282.898V254.608L199.833 198.929C200.65 198.333 200.554 197.502 199.545 196.968C198.912 196.674 198.213 196.521 197.503 196.521C196.793 196.521 196.094 196.674 195.461 196.968C195.214 197.042 194.998 197.186 194.845 197.378C194.692 197.571 194.61 197.803 194.61 198.04C194.61 198.278 194.692 198.509 194.845 198.702C194.998 198.895 195.214 199.038 195.461 199.113C196.034 199.377 196.662 199.527 197.303 199.553C197.944 199.578 198.584 199.479 199.18 199.262L276.863 240.213H253.495L211.622 218.192C212.439 217.596 212.353 216.765 211.334 216.231C210.702 215.937 210.002 215.784 209.292 215.784C208.583 215.784 207.883 215.937 207.251 216.231C207.003 216.305 206.787 216.449 206.635 216.641C206.482 216.834 206.4 217.065 206.4 217.303C206.4 217.541 206.482 217.772 206.635 217.965C206.787 218.157 207.003 218.301 207.251 218.376C207.823 218.64 208.451 218.79 209.092 218.815C209.733 218.841 210.373 218.742 210.969 218.525L253.245 240.791H253.322H277.958L304.794 254.967V282.618L255.302 308.693V294.683L285.712 278.607L285.866 278.529V264.283C286.467 264.261 287.055 264.114 287.586 263.854C287.833 263.779 288.049 263.636 288.202 263.443C288.354 263.25 288.437 263.019 288.437 262.781C288.437 262.544 288.354 262.312 288.202 262.119C288.049 261.927 287.833 261.783 287.586 261.709C286.953 261.415 286.254 261.262 285.544 261.262C284.834 261.262 284.134 261.415 283.502 261.709C283.254 261.783 283.039 261.927 282.886 262.119C282.733 262.312 282.651 262.544 282.651 262.781C282.651 263.019 282.733 263.25 282.886 263.443C283.039 263.636 283.254 263.779 283.502 263.854C284.029 264.113 284.614 264.259 285.212 264.283V278.161L254.812 294.184L254.648 294.272V308.999L243.118 315.058L230.435 308.377L222.749 312.44V281.795L249.566 267.663C250.164 267.877 250.806 267.973 251.448 267.946C252.09 267.919 252.719 267.769 253.294 267.505C253.541 267.431 253.757 267.287 253.909 267.094C254.062 266.902 254.145 266.67 254.145 266.432C254.145 266.195 254.062 265.963 253.909 265.771C253.757 265.578 253.541 265.434 253.294 265.36C252.661 265.066 251.962 264.913 251.252 264.913C250.542 264.913 249.842 265.066 249.21 265.36C248.192 265.894 248.095 266.726 248.912 267.321L222.288 281.331L222.134 281.418V293.939L202.081 283.371V271.498L245.809 248.452C246.406 248.667 247.045 248.763 247.686 248.736C248.327 248.709 248.955 248.559 249.527 248.295C250.67 247.699 250.67 246.745 249.527 246.149C248.895 245.856 248.195 245.703 247.485 245.703C246.776 245.703 246.076 245.856 245.444 246.149C244.483 246.683 244.339 247.515 245.155 248.111L201.591 271.069L201.428 271.156V283.712L222.095 294.622V312.755L211.123 318.534L201.841 313.648V302.564L187.775 295.147C188.591 294.561 188.495 293.72 187.486 293.186C186.853 292.896 186.153 292.746 185.445 292.746C184.736 292.746 184.036 292.896 183.403 293.186C183.156 293.263 182.942 293.408 182.791 293.601C182.639 293.794 182.558 294.026 182.558 294.263C182.558 294.5 182.639 294.732 182.791 294.925C182.942 295.118 183.156 295.263 183.403 295.34C183.976 295.602 184.604 295.751 185.244 295.776C185.885 295.802 186.525 295.704 187.121 295.489L201.188 302.905V313.333L170.518 297.161V272.811L216.696 248.478L216.849 248.4V239.206L190.743 225.45C191.56 224.855 191.464 224.023 190.455 223.489C189.823 223.195 189.123 223.042 188.413 223.042C187.704 223.042 187.004 223.195 186.372 223.489C185.228 224.085 185.228 225.048 186.372 225.634C186.944 225.898 187.572 226.049 188.212 226.076C188.853 226.103 189.493 226.006 190.09 225.792L216.196 239.547V248.041L170.076 272.373L169.913 272.452V297.485L210.489 318.885L202.283 323.262L149.63 295.506V249.809L139.666 244.556C139.56 244.731 139.445 244.897 139.329 245.064L148.938 250.142V295.813L201.591 323.569L192.31 328.516L141.049 301.46L141.213 301.206L92.4313 275.499V269.852L82.5252 264.642V248.584L51.3366 232.14V232.823L81.891 248.925V264.327L69.3234 257.681C70.1401 257.085 70.0536 256.254 69.0351 255.72C68.4028 255.426 67.7031 255.273 66.9934 255.273C66.2836 255.273 65.5839 255.426 64.9516 255.72C64.7051 255.796 64.4912 255.942 64.3398 256.135C64.1883 256.328 64.1069 256.559 64.1069 256.797C64.1069 257.034 64.1883 257.265 64.3398 257.458C64.4912 257.652 64.7051 257.797 64.9516 257.874C65.5249 258.136 66.1526 258.284 66.7934 258.31C67.4341 258.336 68.0736 258.238 68.67 258.022L91.8164 270.219V275.841L140.156 301.373H117.692L51.3366 266.349V267.023L116.404 301.373H52.0284C52.2494 300.874 52.0284 300.34 51.2598 299.946C50.6274 299.652 49.9277 299.499 49.218 299.499C48.5083 299.499 47.8086 299.652 47.1762 299.946C46.9298 300.022 46.7159 300.168 46.5644 300.361C46.4129 300.554 46.3315 300.785 46.3315 301.023C46.3315 301.26 46.4129 301.491 46.5644 301.684C46.7159 301.878 46.9298 302.023 47.1762 302.099C47.8099 302.389 48.5091 302.54 49.218 302.54C49.9269 302.54 50.6261 302.389 51.2598 302.099L51.3943 302.012L51.4423 301.959H140.588L191.608 328.849L182 333.936L145.008 314.445H144.931H36.6551C36.5007 314.131 36.2328 313.875 35.8961 313.719C35.2762 313.417 34.5874 313.252 33.885 313.237C33.1825 313.222 32.4859 313.357 31.851 313.631C31.6034 313.705 31.3878 313.849 31.235 314.042C31.0822 314.234 31 314.466 31 314.704C31 314.941 31.0822 315.173 31.235 315.365C31.3878 315.558 31.6034 315.702 31.851 315.776C32.4833 316.07 33.183 316.223 33.8928 316.223C34.6025 316.223 35.3022 316.07 35.9345 315.776L36.0594 315.697L36.5687 315.286C36.6463 315.182 36.7018 315.067 36.732 314.944H117.72L97.543 325.574H71.6101C71.455 325.248 71.1797 324.982 70.8319 324.821C70.1995 324.527 69.4998 324.374 68.7901 324.374C68.0804 324.374 67.3807 324.527 66.7483 324.821C66.5007 324.895 66.2852 325.039 66.1324 325.232C65.9796 325.424 65.8974 325.656 65.8974 325.894C65.8974 326.131 65.9796 326.363 66.1324 326.555C66.2852 326.748 66.5007 326.892 66.7483 326.966C67.3807 327.26 68.0804 327.413 68.7901 327.413C69.4998 327.413 70.1995 327.26 70.8319 326.966L70.9568 326.879L71.466 326.467C71.5325 326.375 71.5842 326.275 71.6198 326.169H97.6775L118.969 314.944H144.787L181.375 334.207L172.882 338.682L140.502 321.616L140.425 321.573H127.377L100.906 335.521H45.7542C45.6114 335.176 45.3296 334.894 44.9663 334.733C44.334 334.439 43.6343 334.286 42.9246 334.286C42.2148 334.286 41.5152 334.439 40.8828 334.733C40.6352 334.807 40.4196 334.951 40.2668 335.143C40.1141 335.336 40.0318 335.568 40.0318 335.805C40.0318 336.043 40.1141 336.274 40.2668 336.467C40.4196 336.66 40.6352 336.803 40.8828 336.878C41.5152 337.172 42.2148 337.325 42.9246 337.325C43.6343 337.325 44.334 337.172 44.9663 336.878L45.0912 336.79L45.5909 336.379C45.6571 336.296 45.7089 336.204 45.7446 336.107H101.079L127.54 322.159H140.252L163.754 334.549H152.003L140.53 328.516H131.624L111.811 339.023C111.221 338.819 110.59 338.73 109.96 338.762C109.329 338.794 108.713 338.945 108.151 339.207C107.903 339.281 107.687 339.425 107.535 339.618C107.382 339.81 107.3 340.042 107.3 340.28C107.3 340.517 107.382 340.749 107.535 340.941C107.687 341.134 107.903 341.278 108.151 341.352C108.784 341.642 109.483 341.793 110.192 341.793C110.901 341.793 111.6 341.642 112.234 341.352C113.272 340.809 113.349 339.951 112.474 339.356L131.777 329.138H140.338L151.791 335.188H164.84L172.19 339.058L160.237 345.362H142.635L120.785 356.876C120.189 356.661 119.55 356.563 118.909 356.589C118.268 356.614 117.64 356.763 117.067 357.025C116.821 357.102 116.607 357.247 116.455 357.44C116.304 357.633 116.222 357.865 116.222 358.102C116.222 358.34 116.304 358.571 116.455 358.764C116.607 358.957 116.821 359.102 117.067 359.179C117.701 359.469 118.4 359.62 119.109 359.62C119.818 359.62 120.517 359.469 121.151 359.179C122.169 358.645 122.256 357.804 121.439 357.218L142.798 345.949H159.132L153.502 348.908L162.245 353.523L138.609 365.982H113.743L87.5119 352.157C88.3286 351.561 88.2421 350.73 87.2236 350.196C86.5913 349.902 85.8916 349.749 85.1819 349.749C84.4721 349.749 83.7725 349.902 83.1401 350.196C82.8925 350.27 82.6769 350.414 82.5241 350.606C82.3714 350.799 82.2891 351.031 82.2891 351.268C82.2891 351.506 82.3714 351.737 82.5241 351.93C82.6769 352.123 82.8925 352.266 83.1401 352.341C83.7137 352.607 84.3427 352.758 84.9855 352.785C85.6283 352.812 86.27 352.715 86.8681 352.498L100.377 359.617H83.0825V360.291L83.2458 360.204H101.502L113.522 366.534H113.589H137.542L127.732 371.7H108.026C108.04 371.901 108.04 372.103 108.026 372.304H127.848L162.908 353.908L179.242 362.515L138.503 383.958H94.5932L68.8237 397.311C67.9584 397.217 67.0819 397.36 66.3064 397.723C66.0552 397.795 65.8358 397.938 65.6801 398.132C65.5244 398.326 65.4405 398.559 65.4405 398.799C65.4405 399.04 65.5244 399.273 65.6801 399.467C65.8358 399.661 66.0552 399.804 66.3064 399.876C66.9394 400.168 67.6388 400.32 68.3481 400.32C69.0575 400.32 69.7569 400.168 70.3899 399.876L70.5148 399.789L71.0144 399.377C71.4372 398.826 71.2354 398.178 70.3899 397.714C70.1968 397.62 69.994 397.544 69.7846 397.486L94.7662 384.527H137.36L83.5533 412.905V427.142C83.7696 427.109 83.9877 427.085 84.2066 427.072V413.255L179.953 362.804L194.001 370.212L136.389 400.542V446.204L87.6848 471.859L87.5023 471.745C86.8682 471.451 86.167 471.298 85.4557 471.298C84.7444 471.298 84.0432 471.451 83.4091 471.745C83.1615 471.819 82.946 471.963 82.7932 472.156C82.6404 472.348 82.5582 472.58 82.5582 472.817C82.5582 473.055 82.6404 473.287 82.7932 473.479C82.946 473.672 83.1615 473.816 83.4091 473.89C84.0432 474.184 84.7444 474.337 85.4557 474.337C86.167 474.337 86.8682 474.184 87.5023 473.89L87.6272 473.802L88.1268 473.391C88.2549 473.231 88.3239 473.038 88.3239 472.839C88.3239 472.641 88.2549 472.448 88.1268 472.288L137.014 446.545V400.883L194.587 370.544L203.234 375.115L160.602 397.6V451.098L122.899 470.694C121.771 470.376 120.551 470.471 119.498 470.957C119.25 471.031 119.035 471.175 118.882 471.368C118.729 471.56 118.647 471.792 118.647 472.029C118.647 472.267 118.729 472.499 118.882 472.691C119.035 472.884 119.25 473.027 119.498 473.102C120.13 473.396 120.83 473.549 121.54 473.549C122.249 473.549 122.949 473.396 123.581 473.102L123.716 473.023L124.216 472.603C124.629 472.069 124.437 471.438 123.639 470.992L161.246 451.44V397.933L203.888 375.465L215.591 381.594L182.922 398.782V454.986H183.662V435.854L199.996 444.47V463.304H200.64V444.094L183.662 435.171V419.411L205.185 430.793C204.426 431.38 204.551 432.186 205.54 432.711C206.174 433.001 206.873 433.152 207.582 433.152C208.291 433.152 208.99 433.001 209.624 432.711C209.871 432.637 210.087 432.493 210.24 432.3C210.393 432.108 210.475 431.876 210.475 431.638C210.475 431.401 210.393 431.169 210.24 430.977C210.087 430.784 209.871 430.64 209.624 430.566C209.032 430.29 208.381 430.136 207.717 430.115C207.053 430.094 206.392 430.206 205.78 430.443L183.662 418.702V399.176L216.282 381.979L226.698 387.478L210.844 395.814V408.125L214.851 410.235V416.504L243.426 431.564V442.202L266.688 454.461C265.88 455.056 265.967 455.888 266.985 456.422C267.618 456.716 268.317 456.869 269.027 456.869C269.737 456.869 270.437 456.716 271.069 456.422C271.317 456.348 271.532 456.204 271.685 456.011C271.838 455.819 271.92 455.587 271.92 455.349C271.92 455.112 271.838 454.88 271.685 454.688C271.532 454.495 271.317 454.351 271.069 454.277C270.495 454.013 269.866 453.863 269.223 453.836C268.581 453.809 267.94 453.905 267.341 454.119L244.079 441.861V431.231L215.504 416.171V410.576L263.546 435.889C262.787 436.476 262.911 437.282 263.901 437.807C264.533 438.101 265.233 438.254 265.943 438.254C266.653 438.254 267.352 438.101 267.985 437.807C268.232 437.732 268.448 437.589 268.601 437.396C268.753 437.204 268.836 436.972 268.836 436.734C268.836 436.497 268.753 436.265 268.601 436.073C268.448 435.88 268.232 435.736 267.985 435.662C267.393 435.386 266.742 435.232 266.078 435.211C265.414 435.19 264.753 435.302 264.141 435.539L225.631 415.243H244.954L267.053 426.923C266.236 427.519 266.332 428.351 267.341 428.893C267.975 429.183 268.674 429.334 269.383 429.334C270.092 429.334 270.791 429.183 271.424 428.893C271.671 428.817 271.885 428.672 272.036 428.478C272.188 428.285 272.269 428.054 272.269 427.817C272.269 427.579 272.188 427.348 272.036 427.155C271.885 426.961 271.671 426.816 271.424 426.74C270.852 426.475 270.224 426.325 269.583 426.3C268.942 426.274 268.302 426.373 267.706 426.591L245.155 414.7H245.078H224.517L211.421 407.801V396.164L227.274 387.811L230.416 389.466L234.5 387.312L301.076 422.388L301.143 422.432H319.303C319.451 422.771 319.732 423.048 320.09 423.211C320.723 423.505 321.422 423.658 322.132 423.658C322.842 423.658 323.542 423.505 324.174 423.211C324.422 423.136 324.637 422.993 324.79 422.8C324.943 422.608 325.025 422.376 325.025 422.138C325.025 421.901 324.943 421.669 324.79 421.477C324.637 421.284 324.422 421.14 324.174 421.066C323.542 420.772 322.842 420.619 322.132 420.619C321.422 420.619 320.723 420.772 320.09 421.066C319.732 421.229 319.451 421.506 319.303 421.845H301.354L235.191 386.962L245.309 381.629L300.624 410.821C299.807 411.417 299.903 412.249 300.912 412.783C301.545 413.076 302.244 413.229 302.954 413.229C303.664 413.229 304.363 413.076 304.996 412.783C305.247 412.71 305.466 412.567 305.622 412.373C305.778 412.18 305.862 411.946 305.862 411.706C305.862 411.466 305.778 411.232 305.622 411.038C305.466 410.844 305.247 410.701 304.996 410.629C304.423 410.366 303.795 410.217 303.154 410.191C302.513 410.166 301.874 410.264 301.277 410.48L245.953 381.323L256.435 375.807L334.609 416.959V451.449L312.106 463.304H313.374L326.826 456.238L340.277 463.304H341.575L327.508 455.905L335.3 451.79V424.647L348.521 431.652V448.559L349.165 448.227V431.284L335.243 423.955V416.591L257.079 375.439L268.609 369.371L420.142 449.225V463.313H420.795V448.883L269.243 369.021L278.563 364.109L356.66 405.261L356.737 405.305H413.56L438.638 418.518H438.484V432.527L466.876 447.491C466.06 448.078 466.156 448.918 467.165 449.452C467.798 449.742 468.498 449.893 469.206 449.893C469.915 449.893 470.615 449.742 471.248 449.452C471.495 449.375 471.709 449.23 471.86 449.037C472.012 448.844 472.093 448.613 472.093 448.375C472.093 448.138 472.012 447.907 471.86 447.713C471.709 447.52 471.495 447.375 471.248 447.298C470.675 447.036 470.047 446.888 469.406 446.862C468.766 446.836 468.126 446.934 467.53 447.149L439.137 432.186V418.772L482.202 441.467H482.279H577.708L595.916 431.879V431.196L577.535 440.924ZM230.455 388.783L154.837 348.917L230.474 309.06L306.11 348.917L230.455 388.783Z" stroke="#EA9B00"/>
<path opacity="0.5" d="M471.854 221.694C472.203 221.866 472.578 221.987 472.968 222.053V253.391L435.121 273.529V274.23L473.468 253.846L473.631 253.767V222.132C474.428 222.184 475.226 222.036 475.937 221.703C476.184 221.626 476.397 221.481 476.549 221.288C476.7 221.095 476.782 220.863 476.782 220.626C476.782 220.389 476.7 220.157 476.549 219.964C476.397 219.771 476.184 219.626 475.937 219.549C475.304 219.257 474.605 219.105 473.895 219.105C473.186 219.105 472.487 219.257 471.854 219.549C471.61 219.628 471.4 219.773 471.251 219.965C471.102 220.157 471.023 220.386 471.023 220.622C471.023 220.857 471.102 221.086 471.251 221.278C471.4 221.47 471.61 221.615 471.854 221.694V221.694Z" stroke="#EA9B00"/>
<path opacity="0.7" d="M224.786 312.913C226.602 311.97 228.657 311.475 230.748 311.475C232.838 311.475 234.893 311.97 236.71 312.913L307.811 349.889C308.064 350.022 308.275 350.213 308.422 350.444C308.568 350.674 308.645 350.936 308.645 351.202C308.645 351.469 308.568 351.731 308.422 351.961C308.275 352.192 308.064 352.383 307.811 352.516L236.123 389.877C234.517 390.723 232.694 391.168 230.839 391.168C228.984 391.168 227.161 390.723 225.554 389.877L153.78 352.551C153.525 352.419 153.313 352.228 153.165 351.997C153.016 351.767 152.937 351.505 152.935 351.238C152.934 350.97 153.012 350.707 153.161 350.476C153.309 350.245 153.523 350.054 153.78 349.924L224.786 312.913Z" fill="#142D4B" stroke="#EA9B00" stroke-width="0.8"/>
<path opacity="0.7" d="M224.786 301.53C226.602 300.588 228.657 300.092 230.748 300.092C232.838 300.092 234.893 300.588 236.71 301.53L307.811 338.506C308.064 338.639 308.275 338.83 308.422 339.061C308.568 339.292 308.645 339.553 308.645 339.82C308.645 340.086 308.568 340.348 308.422 340.579C308.275 340.809 308.064 341 307.811 341.133L236.123 378.495C234.517 379.34 232.694 379.785 230.839 379.785C228.984 379.785 227.161 379.34 225.554 378.495L153.78 341.168C153.525 341.036 153.313 340.845 153.165 340.615C153.016 340.384 152.937 340.122 152.935 339.855C152.934 339.587 153.012 339.324 153.161 339.093C153.309 338.862 153.523 338.671 153.78 338.541L224.786 301.53Z" fill="#142D4B" stroke="#EA9B00" stroke-width="0.8"/>
<path opacity="0.7" d="M224.786 291.899C226.602 290.956 228.657 290.461 230.748 290.461C232.838 290.461 234.893 290.956 236.71 291.899L307.811 328.875C308.064 329.008 308.275 329.199 308.422 329.43C308.568 329.66 308.645 329.922 308.645 330.188C308.645 330.455 308.568 330.717 308.422 330.947C308.275 331.178 308.064 331.369 307.811 331.502L236.123 368.863C234.517 369.708 232.694 370.153 230.839 370.153C228.984 370.153 227.161 369.708 225.554 368.863L153.78 331.537C153.525 331.405 153.313 331.214 153.165 330.983C153.016 330.753 152.937 330.491 152.935 330.223C152.934 329.956 153.012 329.692 153.161 329.461C153.309 329.23 153.523 329.04 153.78 328.91L224.786 291.899Z" fill="#142D4B" stroke="#EA9B00" stroke-width="0.8"/>
<g opacity="0.11">
<path opacity="0.11" d="M225.228 281.462C227.055 280.52 229.119 280.024 231.218 280.024C233.318 280.024 235.382 280.52 237.209 281.462L308.57 318.377C308.826 318.508 309.039 318.698 309.188 318.929C309.336 319.16 309.414 319.423 309.414 319.69C309.414 319.958 309.336 320.22 309.188 320.451C309.039 320.682 308.826 320.873 308.57 321.003L236.613 358.286C235.001 359.115 233.181 359.551 231.329 359.551C229.477 359.551 227.657 359.115 226.044 358.286L153.982 321.003C153.724 320.874 153.508 320.684 153.358 320.453C153.207 320.222 153.128 319.959 153.128 319.69C153.128 319.421 153.207 319.158 153.358 318.927C153.508 318.696 153.724 318.506 153.982 318.377L225.228 281.462Z" fill="#161B20" stroke="#908E9B" stroke-width="0.8"/>
</g>
<path d="M224.786 281.392C226.602 280.449 228.657 279.953 230.748 279.953C232.838 279.953 234.893 280.449 236.71 281.392L307.811 318.368C308.064 318.501 308.275 318.692 308.422 318.923C308.568 319.153 308.645 319.415 308.645 319.681C308.645 319.948 308.568 320.209 308.422 320.44C308.275 320.671 308.064 320.862 307.811 320.995L236.123 358.356C234.517 359.201 232.694 359.646 230.839 359.646C228.984 359.646 227.161 359.201 225.554 358.356L153.78 321.03C153.525 320.898 153.313 320.707 153.165 320.476C153.016 320.246 152.937 319.984 152.935 319.716C152.934 319.449 153.012 319.185 153.161 318.954C153.309 318.723 153.523 318.533 153.78 318.403L224.786 281.392Z" fill="#142D4B" stroke="#EA9B00" stroke-width="0.8"/>
<g opacity="0.2">
<path opacity="0.2" d="M128.434 306.95C127.092 306.961 125.769 306.659 124.59 306.075L103.981 295.646C103.756 295.536 103.568 295.373 103.437 295.173C103.306 294.973 103.236 294.745 103.236 294.513C103.236 294.28 103.306 294.052 103.437 293.852C103.568 293.652 103.756 293.489 103.981 293.379L123.38 283.668C124.705 283.008 126.192 282.662 127.703 282.662C129.214 282.662 130.701 283.008 132.027 283.668L152.147 293.851C152.372 293.962 152.56 294.125 152.691 294.325C152.822 294.524 152.891 294.753 152.891 294.985C152.891 295.218 152.822 295.446 152.691 295.646C152.56 295.846 152.372 296.009 152.147 296.119L132.258 306.066C131.079 306.65 129.756 306.952 128.414 306.942L128.434 306.95Z" fill="#908E9B"/>
</g>
<path opacity="0.7" d="M132.296 273.091C131.025 272.424 129.584 272.073 128.117 272.073C126.65 272.073 125.208 272.424 123.937 273.091L104.567 283.099C104.387 283.191 104.237 283.325 104.133 283.488C104.028 283.65 103.973 283.835 103.973 284.023C103.973 284.211 104.028 284.396 104.133 284.558C104.237 284.72 104.387 284.855 104.567 284.947L125.157 295.699C126.277 296.284 127.546 296.592 128.837 296.592C130.128 296.592 131.397 296.284 132.517 295.699L152.387 285.437C152.565 285.343 152.712 285.208 152.814 285.046C152.917 284.884 152.971 284.7 152.971 284.513C152.971 284.326 152.917 284.142 152.814 283.98C152.712 283.818 152.565 283.684 152.387 283.59L132.296 273.091Z" fill="#142D4B" stroke="#EA9B00" stroke-width="0.8"/>
<path opacity="0.7" d="M132.296 265.211C131.025 264.544 129.584 264.193 128.117 264.193C126.65 264.193 125.208 264.544 123.937 265.211L104.567 275.21C104.387 275.304 104.237 275.439 104.133 275.602C104.028 275.765 103.972 275.95 103.971 276.138C103.972 276.326 104.028 276.51 104.132 276.671C104.237 276.833 104.387 276.966 104.567 277.058L125.157 287.819C126.277 288.404 127.546 288.712 128.837 288.712C130.128 288.712 131.397 288.404 132.517 287.819L152.387 277.557C152.566 277.465 152.714 277.331 152.817 277.17C152.92 277.008 152.974 276.824 152.973 276.637C152.974 276.449 152.92 276.265 152.817 276.102C152.714 275.939 152.566 275.803 152.387 275.709L132.296 265.211Z" fill="#142D4B" stroke="#EA9B00" stroke-width="0.8"/>
<path opacity="0.7" d="M132.296 258.206C131.025 257.539 129.584 257.188 128.117 257.188C126.65 257.188 125.208 257.539 123.937 258.206L104.567 268.214C104.387 268.306 104.237 268.439 104.132 268.601C104.028 268.762 103.972 268.946 103.971 269.134C103.972 269.322 104.028 269.507 104.133 269.67C104.237 269.833 104.387 269.968 104.567 270.062L125.157 280.814C126.277 281.399 127.546 281.707 128.837 281.707C130.128 281.707 131.397 281.399 132.517 280.814L152.387 270.552C152.566 270.458 152.714 270.323 152.817 270.16C152.92 269.997 152.974 269.812 152.973 269.624C152.974 269.437 152.92 269.253 152.817 269.092C152.714 268.93 152.566 268.796 152.387 268.705L132.296 258.206Z" fill="#142D4B" stroke="#EA9B00" stroke-width="0.8"/>
<g opacity="0.11">
<path opacity="0.11" d="M132.229 250.51C130.963 249.851 129.531 249.505 128.073 249.505C126.616 249.505 125.183 249.851 123.918 250.51L104.634 260.378C104.456 260.468 104.307 260.6 104.204 260.76C104.101 260.92 104.046 261.103 104.046 261.288C104.046 261.474 104.101 261.656 104.204 261.817C104.307 261.977 104.456 262.109 104.634 262.199L125.128 272.794C126.245 273.375 127.508 273.681 128.794 273.681C130.08 273.681 131.343 273.375 132.46 272.794L152.233 262.672C152.412 262.581 152.56 262.449 152.663 262.289C152.767 262.129 152.821 261.947 152.821 261.761C152.821 261.575 152.767 261.393 152.663 261.233C152.56 261.073 152.412 260.941 152.233 260.851L132.229 250.51Z" fill="#161B20" stroke="#908E9B" stroke-width="0.8"/>
</g>
<path d="M132.296 251.202C131.025 250.535 129.584 250.184 128.117 250.184C126.65 250.184 125.208 250.535 123.937 251.202L104.567 261.209C104.387 261.303 104.237 261.438 104.133 261.601C104.028 261.764 103.972 261.949 103.971 262.138C103.972 262.325 104.028 262.509 104.132 262.671C104.237 262.832 104.387 262.966 104.567 263.057L125.157 273.8C126.276 274.39 127.545 274.7 128.837 274.7C130.129 274.7 131.399 274.39 132.517 273.8L152.387 263.539C152.565 263.445 152.712 263.31 152.814 263.148C152.917 262.986 152.971 262.802 152.971 262.615C152.971 262.428 152.917 262.244 152.814 262.082C152.712 261.92 152.565 261.785 152.387 261.691L132.296 251.202Z" fill="#142D4B" stroke="#EA9B00" stroke-width="0.8"/>
<path opacity="0.7" d="M128.664 267.234L116.173 261.104L128.664 254.975L140.319 260.702" fill="#EA9B00"/>
<path d="M128.472 267.698C128.356 267.7 128.242 267.669 128.145 267.61L115.828 261.21C115.729 261.156 115.648 261.08 115.591 260.99C115.533 260.899 115.503 260.797 115.501 260.693C115.502 260.587 115.532 260.484 115.59 260.392C115.647 260.3 115.729 260.223 115.828 260.168L128.145 253.767C128.247 253.716 128.361 253.689 128.477 253.689C128.593 253.689 128.707 253.716 128.808 253.767L141.126 260.168C141.224 260.223 141.305 260.301 141.36 260.392C141.416 260.484 141.444 260.588 141.443 260.693C141.443 260.797 141.414 260.899 141.359 260.989C141.303 261.079 141.223 261.155 141.126 261.21L128.808 267.61C128.707 267.665 128.591 267.696 128.472 267.698ZM117.49 260.693L128.472 266.402L139.464 260.693L128.472 254.967L117.49 260.693Z" fill="white" stroke="#142D4B" stroke-width="0.6"/>
<g opacity="0.2">
<path opacity="0.2" d="M315.133 430.487C313.809 430.486 312.51 430.166 311.366 429.559L291.189 418.859C290.968 418.74 290.784 418.57 290.657 418.367C290.53 418.163 290.463 417.933 290.463 417.699C290.463 417.465 290.53 417.235 290.657 417.031C290.784 416.828 290.968 416.658 291.189 416.539L340.037 390.63C341.329 389.947 342.795 389.587 344.289 389.587C345.782 389.587 347.249 389.947 348.541 390.63L368.266 401.067C368.487 401.188 368.67 401.358 368.797 401.563C368.924 401.767 368.991 401.997 368.991 402.232C368.991 402.466 368.924 402.697 368.797 402.901C368.67 403.105 368.487 403.276 368.266 403.396L318.899 429.559C317.755 430.166 316.456 430.486 315.133 430.487V430.487Z" fill="#908E9B"/>
</g>
<path opacity="0.7" d="M347.964 382.531C346.723 381.869 345.31 381.519 343.871 381.519C342.432 381.519 341.019 381.869 339.778 382.531L290.977 408.396C290.802 408.49 290.657 408.625 290.556 408.786C290.455 408.947 290.402 409.13 290.402 409.315C290.402 409.501 290.455 409.683 290.556 409.844C290.657 410.006 290.802 410.14 290.977 410.235L311.155 420.908C312.249 421.493 313.494 421.801 314.763 421.801C316.031 421.801 317.277 421.493 318.371 420.908L367.642 394.798C367.817 394.704 367.962 394.569 368.063 394.408C368.164 394.247 368.217 394.064 368.217 393.879C368.217 393.693 368.164 393.511 368.063 393.35C367.962 393.188 367.817 393.054 367.642 392.959L347.964 382.531Z" fill="#142D4B" stroke="#EA9B00" stroke-width="0.2"/>
<path opacity="0.7" d="M347.964 375.526C346.723 374.864 345.31 374.515 343.871 374.515C342.432 374.515 341.019 374.864 339.778 375.526L290.977 401.391C290.802 401.485 290.656 401.618 290.555 401.779C290.454 401.939 290.401 402.121 290.401 402.306C290.401 402.491 290.454 402.673 290.555 402.834C290.656 402.994 290.802 403.128 290.977 403.221L311.155 413.903C312.249 414.488 313.494 414.797 314.763 414.797C316.031 414.797 317.277 414.488 318.371 413.903L367.642 387.793C367.817 387.699 367.962 387.564 368.063 387.403C368.164 387.242 368.217 387.06 368.217 386.874C368.217 386.688 368.164 386.506 368.063 386.345C367.962 386.184 367.817 386.049 367.642 385.955L347.964 375.526Z" fill="#142D4B" stroke="#EA9B00" stroke-width="0.2"/>
<path opacity="0.7" d="M347.964 368.522C346.723 367.859 345.31 367.51 343.871 367.51C342.432 367.51 341.019 367.859 339.778 368.522L290.977 394.387C290.802 394.48 290.656 394.613 290.555 394.774C290.454 394.935 290.401 395.116 290.401 395.302C290.401 395.487 290.454 395.669 290.555 395.829C290.656 395.99 290.802 396.123 290.977 396.217L311.155 406.899C312.249 407.484 313.494 407.792 314.763 407.792C316.031 407.792 317.277 407.484 318.371 406.899L367.642 380.789C367.817 380.694 367.962 380.56 368.063 380.398C368.164 380.237 368.217 380.055 368.217 379.869C368.217 379.684 368.164 379.501 368.063 379.34C367.962 379.179 367.817 379.044 367.642 378.95L347.964 368.522Z" fill="#142D4B" stroke="#EA9B00" stroke-width="0.2"/>
<g opacity="0.11">
<path opacity="0.11" d="M347.964 360.834C346.723 360.18 345.314 359.836 343.881 359.836C342.447 359.836 341.038 360.18 339.797 360.834L291.121 386.445C290.953 386.535 290.812 386.662 290.713 386.815C290.614 386.969 290.559 387.143 290.554 387.321C290.56 387.498 290.615 387.672 290.714 387.825C290.813 387.978 290.953 388.106 291.121 388.196L311.299 398.773C312.394 399.345 313.635 399.646 314.897 399.646C316.16 399.646 317.4 399.345 318.495 398.773L367.651 372.908C367.827 372.816 367.973 372.684 368.074 372.524C368.176 372.364 368.229 372.182 368.229 371.998C368.229 371.813 368.176 371.632 368.074 371.472C367.973 371.312 367.827 371.179 367.651 371.087L347.964 360.834Z" fill="#161B20" stroke="#908E9B" stroke-width="0.8"/>
</g>
<path d="M347.964 360.641C346.723 359.979 345.31 359.63 343.871 359.63C342.432 359.63 341.019 359.979 339.778 360.641L290.977 386.506C290.807 386.595 290.665 386.723 290.564 386.876C290.464 387.029 290.407 387.203 290.401 387.382C290.402 387.567 290.455 387.749 290.556 387.911C290.657 388.072 290.802 388.206 290.977 388.301L311.155 398.975C312.249 399.56 313.494 399.868 314.763 399.868C316.031 399.868 317.277 399.56 318.371 398.975L367.642 372.865C367.817 372.77 367.962 372.636 368.063 372.474C368.164 372.313 368.217 372.131 368.217 371.945C368.217 371.76 368.164 371.577 368.063 371.416C367.962 371.255 367.817 371.12 367.642 371.026L347.964 360.641Z" fill="#142D4B" stroke="#EA9B00" stroke-width="0.8"/>
<path opacity="0.7" d="M315.834 392.487L303.824 385.902L316.314 379.773L327.912 386.357L315.834 392.487Z" fill="#EA9B00"/>
<path d="M315.834 393.782C315.716 393.782 315.601 393.755 315.498 393.704L303.189 387.294C303.091 387.241 303.01 387.165 302.952 387.075C302.895 386.984 302.864 386.882 302.863 386.778C302.864 386.672 302.894 386.568 302.951 386.476C303.009 386.385 303.09 386.307 303.189 386.252L315.498 379.852C315.603 379.8 315.72 379.774 315.839 379.774C315.958 379.774 316.075 379.8 316.18 379.852L328.488 386.252C328.586 386.308 328.666 386.385 328.722 386.477C328.777 386.569 328.806 386.673 328.805 386.778C328.805 386.881 328.776 386.983 328.721 387.074C328.665 387.164 328.585 387.24 328.488 387.294L316.18 393.704C316.073 393.755 315.955 393.782 315.834 393.782ZM304.852 386.778L310.343 389.632L313.088 391.059L315.834 392.486L326.826 386.778L315.834 381.051L304.852 386.778Z" fill="white" stroke="#142D4B" stroke-width="0.6"/>
<path opacity="0.7" d="M342.257 378.897L329.766 372.768L342.257 366.639L354.748 372.768L342.257 378.897Z" fill="#EA9B00"/>
<path d="M341.767 379.773C341.652 379.774 341.539 379.746 341.44 379.694L329.132 373.294C329.032 373.24 328.95 373.164 328.892 373.073C328.835 372.981 328.805 372.878 328.805 372.773C328.805 372.667 328.835 372.564 328.892 372.472C328.95 372.381 329.032 372.305 329.132 372.252L341.44 365.842C341.543 365.791 341.659 365.764 341.776 365.764C341.894 365.764 342.01 365.791 342.113 365.842L354.421 372.243C354.521 372.296 354.603 372.372 354.661 372.464C354.718 372.555 354.748 372.659 354.748 372.764C354.748 372.869 354.718 372.973 354.661 373.064C354.603 373.155 354.521 373.232 354.421 373.285L342.113 379.685C342.007 379.741 341.888 379.771 341.767 379.773ZM330.794 372.768L341.767 378.477L352.768 372.768L341.767 367.042L330.794 372.768Z" fill="white" stroke="#142D4B" stroke-width="0.6"/>
<mask id="mask0" mask-type="alpha" maskUnits="userSpaceOnUse" x="227" y="300" width="5" height="5">
<path d="M229.15 303.94C228.276 303.94 227.596 303.258 227.596 302.451C227.596 301.644 228.276 300.963 229.15 300.963C230.024 300.963 230.704 301.645 230.704 302.451C230.704 303.258 230.023 303.94 229.15 303.94Z" fill="#EA9B00" stroke="white"/>
</mask>
<g mask="url(#mask0)">
<path d="M227.096 302.451C227.096 303.549 228.015 304.44 229.15 304.44C230.284 304.44 231.204 303.549 231.204 302.451C231.204 301.353 230.284 300.463 229.15 300.463C228.015 300.463 227.096 301.353 227.096 302.451Z" fill="#EA9B00" stroke="white"/>
</g>
<mask id="mask1" mask-type="alpha" maskUnits="userSpaceOnUse" x="227" y="308" width="5" height="5">
<path d="M229.15 312.001C228.276 312.001 227.596 311.32 227.596 310.513C227.596 309.706 228.276 309.024 229.15 309.024C230.023 309.024 230.704 309.706 230.704 310.513C230.704 311.32 230.023 312.001 229.15 312.001Z" fill="#EA9B00" stroke="white"/>
</mask>
<g mask="url(#mask1)">
<path d="M227.096 310.513C227.096 311.611 228.015 312.501 229.15 312.501C230.284 312.501 231.204 311.611 231.204 310.513C231.204 309.415 230.284 308.524 229.15 308.524C228.015 308.524 227.096 309.415 227.096 310.513Z" fill="#EA9B00" stroke="white"/>
</g>
<mask id="mask2" mask-type="alpha" maskUnits="userSpaceOnUse" x="235" y="316" width="5" height="5">
<path d="M237.366 320.277C236.505 320.277 235.812 319.584 235.812 318.735C235.812 317.886 236.505 317.193 237.366 317.193C238.226 317.193 238.92 317.886 238.92 318.735C238.92 319.584 238.226 320.277 237.366 320.277Z" fill="#EA9B00" stroke="white"/>
</mask>
<g mask="url(#mask2)">
<path d="M235.312 318.735C235.312 319.863 236.231 320.777 237.366 320.777C238.5 320.777 239.42 319.863 239.42 318.735C239.42 317.607 238.5 316.693 237.366 316.693C236.231 316.693 235.312 317.607 235.312 318.735Z" fill="#EA9B00" stroke="white"/>
</g>
<mask id="mask3" mask-type="alpha" maskUnits="userSpaceOnUse" x="235" y="324" width="5" height="5">
<path d="M237.366 328.446C236.505 328.446 235.812 327.753 235.812 326.904C235.812 326.055 236.505 325.362 237.366 325.362C238.226 325.362 238.92 326.055 238.92 326.904C238.92 327.753 238.226 328.446 237.366 328.446Z" fill="#EA9B00" stroke="white"/>
</mask>
<g mask="url(#mask3)">
<path d="M235.312 326.904C235.312 328.031 236.231 328.946 237.366 328.946C238.5 328.946 239.42 328.031 239.42 326.904C239.42 325.776 238.5 324.862 237.366 324.862C236.231 324.862 235.312 325.776 235.312 326.904Z" fill="#EA9B00" stroke="white"/>
</g>
<mask id="mask4" mask-type="alpha" maskUnits="userSpaceOnUse" x="243" y="308" width="5" height="21">
<path d="M244.027 326.705V310.55C244.027 309.69 244.693 309.024 245.581 309.024C246.426 309.024 247.135 309.699 247.135 310.55V326.705C247.135 327.521 246.462 328.231 245.581 328.231C244.737 328.231 244.027 327.557 244.027 326.705Z" fill="#EA9B00" stroke="white"/>
</mask>
<g mask="url(#mask4)">
<path d="M243.527 310.55V326.705C243.527 327.847 244.476 328.731 245.581 328.731C246.739 328.731 247.635 327.796 247.635 326.705V310.55C247.635 309.408 246.688 308.524 245.581 308.524C244.423 308.524 243.527 309.408 243.527 310.55Z" fill="#EA9B00" stroke="white"/>
</g>
<mask id="mask5" mask-type="alpha" maskUnits="userSpaceOnUse" x="227" y="316" width="5" height="21">
<path d="M227.596 334.766V318.611C227.596 317.803 228.314 317.085 229.15 317.085C229.995 317.085 230.704 317.76 230.704 318.611V334.766C230.704 335.583 230.031 336.292 229.15 336.292C228.305 336.292 227.596 335.618 227.596 334.766Z" fill="#EA9B00" stroke="white"/>
</mask>
<g mask="url(#mask5)">
<path d="M227.096 318.611V334.766C227.096 335.909 228.044 336.792 229.15 336.792C230.309 336.792 231.204 335.857 231.204 334.766V318.611C231.204 317.469 230.256 316.585 229.15 316.585C228.044 316.585 227.096 317.52 227.096 318.611Z" fill="#EA9B00" stroke="white"/>
</g>
<mask id="mask6" mask-type="alpha" maskUnits="userSpaceOnUse" x="218" y="308" width="5" height="21">
<path d="M219.488 326.705V310.55C219.488 309.678 220.142 309.024 220.988 309.024C221.791 309.024 222.488 309.686 222.488 310.55V326.705C222.488 327.534 221.826 328.231 220.988 328.231C220.185 328.231 219.488 327.569 219.488 326.705Z" fill="#EA9B00" stroke="white"/>
</mask>
<g mask="url(#mask6)">
<path d="M218.988 310.55V326.705C218.988 327.847 219.911 328.731 220.988 328.731C222.116 328.731 222.988 327.795 222.988 326.705V310.55C222.988 309.408 222.065 308.524 220.988 308.524C219.86 308.524 218.988 309.408 218.988 310.55Z" fill="#EA9B00" stroke="white"/>
</g>
<mask id="mask7" mask-type="alpha" maskUnits="userSpaceOnUse" x="218" y="332" width="5" height="5">
<path d="M220.988 336.399C220.17 336.399 219.488 335.719 219.488 334.858C219.488 333.995 220.17 333.315 220.988 333.315C221.807 333.315 222.488 333.995 222.488 334.858C222.488 335.719 221.807 336.399 220.988 336.399Z" fill="#EA9B00" stroke="white"/>
</mask>
<g mask="url(#mask7)">
<path d="M218.988 334.858C218.988 335.986 219.884 336.899 220.988 336.899C222.093 336.899 222.988 335.986 222.988 334.858C222.988 333.729 222.093 332.815 220.988 332.815C219.884 332.815 218.988 333.729 218.988 334.858Z" fill="#EA9B00" stroke="white"/>
</g>
<mask id="mask8" mask-type="alpha" maskUnits="userSpaceOnUse" x="218" y="300" width="5" height="5">
<path d="M220.988 303.94C220.158 303.94 219.488 303.271 219.488 302.451C219.488 301.632 220.157 300.963 220.988 300.963C221.82 300.963 222.488 301.632 222.488 302.451C222.488 303.271 221.819 303.94 220.988 303.94Z" fill="#EA9B00" stroke="white"/>
</mask>
<g mask="url(#mask8)">
<path d="M218.988 302.451C218.988 303.549 219.884 304.44 220.988 304.44C222.093 304.44 222.988 303.549 222.988 302.451C222.988 301.353 222.093 300.463 220.988 300.463C219.884 300.463 218.988 301.353 218.988 302.451Z" fill="#EA9B00" stroke="white"/>
</g>
<mask id="mask9" mask-type="alpha" maskUnits="userSpaceOnUse" x="210" y="308" width="5" height="21">
<path d="M211.381 326.593L211.381 310.555C211.381 309.723 212.045 309.024 212.881 309.024C213.674 309.024 214.381 309.731 214.381 310.555L214.381 326.593C214.381 327.425 213.718 328.123 212.881 328.123C212.079 328.123 211.381 327.461 211.381 326.593Z" fill="#EA9B00" stroke="white"/>
</mask>
<g mask="url(#mask9)">
<path d="M210.881 310.555L210.881 326.593C210.881 327.738 211.804 328.623 212.881 328.623C214.009 328.623 214.881 327.686 214.881 326.593L214.881 310.555C214.881 309.462 213.957 308.524 212.881 308.524C211.753 308.524 210.881 309.462 210.881 310.555Z" fill="#EA9B00" stroke="white"/>
</g>
<path opacity="0.1" d="M135.696 243.13H116.969V96.1185L135.696 85.769V243.13Z" fill="url(#paint0_linear)"/>
<path opacity="0.5" d="M115.624 235.372V100.628" stroke="#908E9B" stroke-width="0.5" stroke-miterlimit="10"/>
<path opacity="0.5" d="M137.041 235.372V100.628" stroke="#908E9B" stroke-width="0.5" stroke-miterlimit="10"/>
<path opacity="0.1" d="M141.182 224.27V89.5253" stroke="#908E9B" stroke-width="0.5" stroke-miterlimit="10"/>
<path opacity="0.1" d="M120.313 224.27V89.5253" stroke="#908E9B" stroke-width="0.5" stroke-miterlimit="10"/>
<path d="M129.21 246.054C129.551 246.049 129.886 246.137 130.171 246.308C130.316 246.385 130.437 246.494 130.521 246.626C130.606 246.759 130.651 246.908 130.652 247.061H122.965V247.35H122.773C122.765 247.265 122.735 247.184 122.684 247.112C122.634 247.04 122.566 246.981 122.485 246.939C122.335 246.824 122.151 246.754 121.956 246.737V246.054H129.21Z" fill="#EA9B00"/>
<path d="M128.567 234.059C128.855 234.053 129.142 234.107 129.405 234.216C129.667 234.325 129.9 234.487 130.085 234.689C130.481 235.09 130.697 235.612 130.69 236.151C130.691 236.639 130.515 237.113 130.19 237.5C130.008 237.736 129.764 237.928 129.481 238.058C129.198 238.188 128.884 238.252 128.567 238.244H124.349C123.715 238.276 123.093 238.077 122.619 237.692C122.396 237.493 122.224 237.252 122.113 236.986C122.002 236.72 121.955 236.435 121.975 236.151C121.936 235.862 121.97 235.568 122.077 235.292C122.183 235.017 122.358 234.768 122.589 234.565C122.819 234.362 123.098 234.211 123.403 234.123C123.709 234.035 124.032 234.013 124.349 234.059H128.567ZM127.923 234.75H124.848C123.628 234.75 123.023 235.215 123.023 236.151C123.023 237.088 123.628 237.544 124.848 237.544H127.923C128.351 237.557 128.771 237.43 129.105 237.185C129.269 237.058 129.399 236.9 129.485 236.721C129.572 236.542 129.613 236.347 129.604 236.151C129.613 235.957 129.573 235.763 129.486 235.586C129.4 235.408 129.269 235.251 129.105 235.127C128.77 234.886 128.349 234.767 127.923 234.794V234.75Z" fill="#EA9B00"/>
<path d="M129.21 227.334C129.551 227.329 129.886 227.417 130.171 227.588C130.316 227.665 130.437 227.774 130.521 227.906C130.606 228.038 130.651 228.188 130.652 228.341H122.965V228.665H122.773C122.763 228.581 122.732 228.5 122.682 228.428C122.632 228.357 122.565 228.297 122.485 228.254C122.336 228.139 122.151 228.071 121.956 228.061V227.378L129.21 227.334Z" fill="#EA9B00"/>
<path d="M128.567 218.508C128.855 218.502 129.141 218.554 129.403 218.662C129.666 218.769 129.899 218.929 130.085 219.13C130.479 219.532 130.695 220.053 130.69 220.592C130.692 221.08 130.516 221.554 130.19 221.941C130.009 222.179 129.766 222.372 129.483 222.504C129.199 222.635 128.885 222.7 128.567 222.694H124.349C123.715 222.725 123.093 222.527 122.619 222.142C122.397 221.94 122.225 221.697 122.114 221.43C122.003 221.163 121.956 220.877 121.975 220.592C121.975 219.2 122.763 218.508 124.349 218.508H128.567ZM127.923 219.2H124.848C123.628 219.2 123.023 219.664 123.023 220.592C123.023 221.52 123.628 221.993 124.848 221.993H127.923C128.351 222.006 128.771 221.879 129.105 221.634C129.269 221.506 129.399 221.346 129.486 221.165C129.572 220.985 129.613 220.789 129.604 220.592C129.613 220.398 129.573 220.204 129.486 220.027C129.4 219.849 129.269 219.692 129.105 219.568C128.774 219.317 128.353 219.186 127.923 219.2Z" fill="#EA9B00"/>
<path d="M128.567 209.674C128.855 209.668 129.142 209.722 129.405 209.831C129.667 209.94 129.9 210.102 130.085 210.304C130.481 210.705 130.697 211.227 130.69 211.766C130.691 212.254 130.515 212.728 130.19 213.115C130.008 213.351 129.764 213.543 129.481 213.673C129.198 213.803 128.884 213.867 128.567 213.859H124.349C123.715 213.891 123.093 213.692 122.619 213.307C122.396 213.108 122.224 212.867 122.113 212.601C122.002 212.335 121.955 212.05 121.975 211.766C121.936 211.477 121.97 211.183 122.077 210.907C122.183 210.632 122.358 210.383 122.589 210.18C122.819 209.977 123.098 209.826 123.403 209.738C123.709 209.65 124.032 209.628 124.349 209.674H128.567ZM127.923 210.365H124.848C123.628 210.365 123.023 210.829 123.023 211.766C123.023 212.703 123.628 213.158 124.848 213.158H127.923C128.351 213.172 128.771 213.044 129.105 212.799C129.269 212.673 129.399 212.514 129.485 212.335C129.572 212.156 129.613 211.962 129.604 211.766C129.613 211.572 129.573 211.378 129.486 211.201C129.4 211.023 129.269 210.866 129.105 210.742C128.775 210.488 128.354 210.354 127.923 210.365Z" fill="#EA9B00"/>
<path d="M129.21 203.737C129.551 203.731 129.886 203.82 130.171 203.991C130.316 204.067 130.437 204.177 130.521 204.309C130.606 204.441 130.651 204.591 130.652 204.744H122.965V205.024H122.773C122.765 204.939 122.735 204.858 122.684 204.786C122.634 204.714 122.566 204.655 122.485 204.613C122.335 204.498 122.151 204.428 121.956 204.411V203.728L129.21 203.737Z" fill="#EA9B00"/>
<path d="M129.21 198.597C129.551 198.592 129.886 198.68 130.171 198.851C130.316 198.928 130.437 199.037 130.521 199.17C130.606 199.302 130.651 199.452 130.652 199.604H122.965V199.893H122.773C122.765 199.809 122.735 199.727 122.684 199.655C122.634 199.583 122.566 199.524 122.485 199.482C122.335 199.367 122.151 199.297 121.956 199.28V198.597H129.21Z" fill="#EA9B00"/>
<path d="M129.21 193.458C129.551 193.452 129.886 193.541 130.171 193.712C130.316 193.788 130.437 193.898 130.521 194.03C130.606 194.162 130.651 194.312 130.652 194.465H122.965V194.754H122.773C122.765 194.669 122.735 194.587 122.684 194.515C122.634 194.444 122.566 194.384 122.485 194.342C122.335 194.228 122.151 194.157 121.956 194.141V193.458H129.21Z" fill="#EA9B00"/>
<path d="M129.21 188.318C129.551 188.312 129.886 188.401 130.171 188.572C130.316 188.648 130.437 188.758 130.521 188.89C130.606 189.022 130.651 189.172 130.652 189.325H122.965V189.614H122.773C122.765 189.529 122.735 189.447 122.684 189.376C122.634 189.304 122.566 189.245 122.485 189.202C122.339 189.082 122.152 189.011 121.956 189.001V188.318H129.21Z" fill="#EA9B00"/>
<path d="M129.21 183.178C129.551 183.173 129.886 183.261 130.171 183.432C130.316 183.509 130.437 183.618 130.521 183.75C130.606 183.883 130.651 184.032 130.652 184.185H122.965V184.474H122.773C122.765 184.389 122.735 184.308 122.684 184.236C122.634 184.164 122.566 184.105 122.485 184.063C122.339 183.942 122.152 183.871 121.956 183.861V183.178H129.21Z" fill="#EA9B00"/>
<path d="M128.567 175.14C128.855 175.135 129.142 175.189 129.405 175.298C129.667 175.407 129.9 175.569 130.085 175.771C130.479 176.172 130.695 176.694 130.69 177.233C130.692 177.721 130.516 178.195 130.19 178.581C130.009 178.82 129.766 179.013 129.483 179.144C129.199 179.276 128.885 179.341 128.567 179.334H124.349C123.715 179.366 123.093 179.168 122.619 178.783C122.397 178.581 122.225 178.338 122.114 178.071C122.003 177.804 121.956 177.518 121.975 177.233C121.936 176.943 121.97 176.649 122.077 176.374C122.183 176.099 122.358 175.85 122.589 175.647C122.819 175.444 123.098 175.292 123.403 175.205C123.709 175.117 124.032 175.095 124.349 175.14H128.567ZM127.923 175.841H124.848C123.628 175.841 123.023 176.305 123.023 177.233C123.023 178.161 123.628 178.625 124.848 178.625H127.923C128.35 178.641 128.769 178.517 129.105 178.275C129.269 178.147 129.399 177.987 129.486 177.806C129.572 177.626 129.613 177.43 129.604 177.233C129.613 177.039 129.573 176.845 129.486 176.667C129.4 176.49 129.269 176.333 129.105 176.209C128.774 175.958 128.353 175.827 127.923 175.841Z" fill="#EA9B00"/>
<path d="M128.567 167.102C128.855 167.097 129.142 167.151 129.405 167.26C129.667 167.369 129.9 167.531 130.085 167.733C130.479 168.135 130.695 168.656 130.69 169.195C130.692 169.683 130.516 170.157 130.19 170.544C130.009 170.782 129.766 170.975 129.483 171.107C129.199 171.238 128.885 171.303 128.567 171.297H124.349C123.715 171.328 123.093 171.13 122.619 170.745C122.397 170.543 122.225 170.3 122.114 170.033C122.003 169.766 121.956 169.48 121.975 169.195C121.936 168.906 121.97 168.611 122.077 168.336C122.183 168.061 122.358 167.812 122.589 167.609C122.819 167.406 123.098 167.255 123.403 167.167C123.709 167.079 124.032 167.057 124.349 167.102H128.567ZM127.923 167.803H124.848C123.628 167.803 123.023 168.267 123.023 169.195C123.023 170.123 123.628 170.587 124.848 170.587H127.923C128.35 170.603 128.769 170.479 129.105 170.237C129.269 170.109 129.399 169.949 129.486 169.768C129.572 169.588 129.613 169.392 129.604 169.195C129.613 169.001 129.573 168.807 129.486 168.63C129.4 168.452 129.269 168.295 129.105 168.171C128.774 167.92 128.353 167.789 127.923 167.803Z" fill="#EA9B00"/>
<path d="M128.567 159.065C128.855 159.059 129.142 159.113 129.405 159.222C129.667 159.331 129.9 159.493 130.085 159.695C130.479 160.097 130.695 160.618 130.69 161.157C130.692 161.645 130.516 162.119 130.19 162.506C130.009 162.744 129.766 162.937 129.483 163.069C129.199 163.2 128.885 163.265 128.567 163.259H124.349C123.715 163.29 123.093 163.092 122.619 162.707C122.397 162.505 122.225 162.262 122.114 161.995C122.003 161.728 121.956 161.442 121.975 161.157C121.936 160.868 121.97 160.574 122.077 160.298C122.183 160.023 122.358 159.774 122.589 159.571C122.819 159.368 123.098 159.217 123.403 159.129C123.709 159.041 124.032 159.019 124.349 159.065H128.567ZM127.923 159.765H124.848C123.628 159.765 123.023 160.229 123.023 161.157C123.023 162.085 123.628 162.549 124.848 162.549H127.923C128.35 162.565 128.769 162.441 129.105 162.199C129.269 162.071 129.399 161.911 129.486 161.73C129.572 161.55 129.613 161.354 129.604 161.157C129.613 160.963 129.573 160.769 129.486 160.592C129.4 160.414 129.269 160.257 129.105 160.133C128.774 159.882 128.353 159.751 127.923 159.765Z" fill="#EA9B00"/>
<path d="M128.567 151.027C128.855 151.021 129.142 151.075 129.405 151.184C129.667 151.293 129.9 151.455 130.085 151.657C130.479 152.059 130.695 152.58 130.69 153.119C130.692 153.607 130.516 154.081 130.19 154.468C130.009 154.706 129.766 154.899 129.483 155.031C129.199 155.162 128.885 155.227 128.567 155.221H124.349C123.715 155.252 123.093 155.054 122.619 154.669C122.397 154.467 122.225 154.225 122.114 153.957C122.003 153.69 121.956 153.405 121.975 153.119C121.936 152.83 121.97 152.536 122.077 152.26C122.183 151.985 122.358 151.736 122.589 151.533C122.819 151.33 123.098 151.179 123.403 151.091C123.709 151.003 124.032 150.981 124.349 151.027H128.567ZM127.923 151.727H124.848C123.628 151.727 123.023 152.191 123.023 153.119C123.023 154.047 123.628 154.512 124.848 154.512H127.923C128.35 154.527 128.769 154.403 129.105 154.161C129.269 154.033 129.399 153.873 129.486 153.693C129.572 153.512 129.613 153.316 129.604 153.119C129.613 152.925 129.573 152.731 129.486 152.554C129.4 152.376 129.269 152.219 129.105 152.095C128.774 151.844 128.353 151.713 127.923 151.727Z" fill="#EA9B00"/>
<path d="M129.21 145.887C129.551 145.881 129.886 145.97 130.171 146.141C130.316 146.217 130.437 146.327 130.521 146.459C130.606 146.591 130.651 146.741 130.652 146.894H122.965V147.183H122.773C122.765 147.098 122.735 147.016 122.684 146.945C122.634 146.873 122.566 146.814 122.485 146.771C122.339 146.651 122.152 146.58 121.956 146.57V145.887H129.21Z" fill="#EA9B00"/>
<path d="M128.567 137.849C128.855 137.843 129.142 137.897 129.405 138.006C129.667 138.115 129.9 138.277 130.085 138.48C130.479 138.881 130.695 139.403 130.69 139.942C130.692 140.429 130.516 140.904 130.19 141.29C130.009 141.528 129.766 141.722 129.483 141.853C129.199 141.985 128.885 142.05 128.567 142.043H124.349C123.715 142.075 123.093 141.876 122.619 141.492C122.397 141.29 122.225 141.047 122.114 140.78C122.003 140.513 121.956 140.227 121.975 139.942C121.936 139.652 121.97 139.358 122.077 139.083C122.183 138.807 122.358 138.558 122.589 138.356C122.819 138.153 123.098 138.001 123.403 137.913C123.709 137.825 124.032 137.803 124.349 137.849H128.567ZM127.923 138.55H124.848C123.628 138.55 123.023 139.014 123.023 139.942C123.023 140.87 123.628 141.334 124.848 141.334H127.923C128.35 141.35 128.769 141.226 129.105 140.984C129.269 140.856 129.399 140.695 129.486 140.515C129.572 140.334 129.613 140.139 129.604 139.942C129.613 139.747 129.573 139.554 129.486 139.376C129.4 139.198 129.269 139.041 129.105 138.917C128.774 138.666 128.353 138.535 127.923 138.55Z" fill="#EA9B00"/>
<path d="M129.21 132.709C129.551 132.704 129.886 132.792 130.171 132.963C130.316 133.04 130.437 133.149 130.521 133.281C130.606 133.414 130.651 133.563 130.652 133.716H122.965V134.005H122.773C122.765 133.92 122.735 133.839 122.684 133.767C122.634 133.695 122.566 133.636 122.485 133.594C122.339 133.473 122.152 133.402 121.956 133.392V132.709H129.21Z" fill="#EA9B00"/>
<path d="M128.567 124.671C128.855 124.666 129.142 124.72 129.405 124.829C129.667 124.938 129.9 125.1 130.085 125.302C130.479 125.703 130.695 126.225 130.69 126.764C130.692 127.252 130.516 127.726 130.19 128.112C130.009 128.351 129.766 128.544 129.483 128.676C129.199 128.807 128.885 128.872 128.567 128.865H124.349C123.715 128.897 123.093 128.699 122.619 128.314C122.397 128.112 122.225 127.869 122.114 127.602C122.003 127.335 121.956 127.049 121.975 126.764C121.936 126.474 121.97 126.18 122.077 125.905C122.183 125.63 122.358 125.381 122.589 125.178C122.819 124.975 123.098 124.823 123.403 124.736C123.709 124.648 124.032 124.626 124.349 124.671H128.567ZM127.923 125.372H124.848C123.628 125.372 123.023 125.836 123.023 126.764C123.023 127.692 123.628 128.156 124.848 128.156H127.923C128.35 128.172 128.769 128.048 129.105 127.806C129.269 127.678 129.399 127.518 129.486 127.337C129.572 127.157 129.613 126.961 129.604 126.764C129.613 126.57 129.573 126.376 129.486 126.198C129.4 126.021 129.269 125.864 129.105 125.74C128.778 125.479 128.357 125.339 127.923 125.346V125.372Z" fill="#EA9B00"/>
<path d="M129.21 119.532C129.551 119.526 129.886 119.615 130.171 119.786C130.316 119.862 130.437 119.972 130.521 120.104C130.606 120.236 130.651 120.386 130.652 120.539H122.965V120.828H122.773C122.765 120.743 122.735 120.661 122.684 120.589C122.634 120.518 122.566 120.458 122.485 120.416C122.339 120.296 122.152 120.224 121.956 120.215V119.532H129.21Z" fill="#EA9B00"/>
<path d="M128.567 111.494C128.855 111.488 129.142 111.542 129.405 111.651C129.667 111.76 129.9 111.922 130.085 112.124C130.479 112.526 130.695 113.047 130.69 113.586C130.692 114.074 130.516 114.548 130.19 114.935C130.009 115.173 129.766 115.366 129.483 115.498C129.199 115.629 128.885 115.695 128.567 115.688H124.349C123.715 115.719 123.093 115.521 122.619 115.136C122.397 114.934 122.225 114.692 122.114 114.425C122.003 114.157 121.956 113.872 121.975 113.586C121.936 113.297 121.97 113.003 122.077 112.727C122.183 112.452 122.358 112.203 122.589 112C122.819 111.797 123.098 111.646 123.403 111.558C123.709 111.47 124.032 111.448 124.349 111.494H128.567ZM127.923 112.194H124.848C123.628 112.194 123.023 112.658 123.023 113.586C123.023 114.515 123.628 114.979 124.848 114.979H127.923C128.35 114.995 128.769 114.87 129.105 114.628C129.269 114.5 129.399 114.34 129.486 114.16C129.572 113.979 129.613 113.783 129.604 113.586C129.613 113.392 129.573 113.199 129.486 113.021C129.4 112.843 129.269 112.686 129.105 112.562C128.771 112.317 128.351 112.193 127.923 112.212V112.194Z" fill="#EA9B00"/>
<path d="M129.21 106.354C129.551 106.349 129.886 106.437 130.171 106.608C130.316 106.684 130.437 106.794 130.521 106.926C130.606 107.058 130.651 107.208 130.652 107.361H122.965V107.65H122.773C122.765 107.565 122.735 107.484 122.684 107.412C122.634 107.34 122.566 107.281 122.485 107.238C122.339 107.118 122.152 107.047 121.956 107.037V106.354H129.21Z" fill="#EA9B00"/>
<path d="M129.21 101.214C129.551 101.209 129.886 101.297 130.171 101.468C130.316 101.545 130.437 101.654 130.521 101.787C130.606 101.919 130.651 102.069 130.652 102.221H122.965V102.51H122.773C122.765 102.426 122.735 102.344 122.684 102.272C122.634 102.2 122.566 102.141 122.485 102.099C122.339 101.978 122.152 101.907 121.956 101.897V101.214H129.21Z" fill="#EA9B00"/>
<path d="M431.958 327.922H431.872L400.751 311.286L401.087 311.119L431.978 294.667H432.093L463.205 311.303L462.878 311.47L431.958 327.922ZM401.615 311.286L416.787 319.359L431.958 327.431L462.292 311.303L431.958 295.149L401.615 311.286Z" fill="#EA9B00"/>
<path opacity="0.6" d="M432.439 322.1L412.346 311.286L432.439 300.471L452.513 311.286L432.439 322.1Z" fill="#142D4B" stroke="#EA9B00"/>
<path d="M432.439 284.142L411.291 272.76V295.525L432.439 306.908L453.567 295.525V272.76L432.439 284.142Z" fill="#908E9B" stroke="#908E9B" stroke-width="0.2"/>
<path d="M432.429 306.908L411.291 295.525V272.76L432.429 284.142V306.908Z" fill="#142D4B" stroke="#EA9B00" stroke-width="0.75" stroke-linecap="round" stroke-linejoin="round"/>
<path d="M453.567 295.525L432.429 306.908V284.142L453.567 272.76V295.525Z" fill="#142D4B" stroke="#EA9B00" stroke-width="0.75" stroke-linecap="round" stroke-linejoin="round"/>
<path d="M432.439 284.142L411.291 272.76L432.439 261.377L453.567 272.76L432.439 284.142Z" fill="#142D4B" stroke="#EA9B00" stroke-width="0.75" stroke-linecap="round" stroke-linejoin="round"/>
<path opacity="0.1" d="M440.702 108.342H423.878V253.208H440.702V108.342Z" fill="url(#paint1_linear)"/>
<path opacity="0.5" d="M422.667 246.247V123.787" stroke="#908E9B" stroke-width="0.5" stroke-miterlimit="10"/>
<path opacity="0.5" d="M441.913 246.247V123.787" stroke="#908E9B" stroke-width="0.5" stroke-miterlimit="10"/>
<path opacity="0.1" d="M445.631 236.16V113.7" stroke="#908E9B" stroke-width="0.5" stroke-miterlimit="10"/>
<path opacity="0.1" d="M426.885 236.16V113.7" stroke="#908E9B" stroke-width="0.5" stroke-miterlimit="10"/>
<path d="M434.908 255.808C435.215 255.802 435.517 255.881 435.773 256.036C435.904 256.103 436.014 256.201 436.09 256.319C436.166 256.438 436.206 256.573 436.205 256.71H429.278V256.964H429.105C429.095 256.89 429.068 256.818 429.025 256.755C428.982 256.691 428.924 256.637 428.855 256.596C428.721 256.491 428.551 256.429 428.374 256.421V255.808H434.908Z" fill="#EA9B00"/>
<path d="M434.303 245.065C434.56 245.061 434.815 245.109 435.05 245.206C435.284 245.302 435.492 245.446 435.658 245.625C436.015 245.985 436.211 246.454 436.205 246.939C436.201 247.376 436.047 247.802 435.763 248.156C435.599 248.368 435.379 248.539 435.125 248.655C434.87 248.772 434.588 248.828 434.303 248.821H430.507C429.938 248.851 429.378 248.675 428.951 248.331C428.752 248.149 428.598 247.931 428.499 247.691C428.399 247.451 428.357 247.195 428.374 246.939C428.374 245.687 429.085 245.065 430.507 245.065H434.303ZM433.717 245.687H430.959C429.864 245.687 429.316 246.107 429.316 246.939C429.316 247.77 429.864 248.191 430.959 248.191H433.717C434.102 248.205 434.48 248.093 434.783 247.876C434.931 247.761 435.049 247.617 435.127 247.454C435.205 247.292 435.242 247.116 435.235 246.939C435.242 246.764 435.205 246.59 435.127 246.431C435.048 246.272 434.931 246.131 434.783 246.019C434.485 245.792 434.105 245.674 433.717 245.687Z" fill="#EA9B00"/>
<path d="M434.908 239.023C435.216 239.012 435.519 239.092 435.773 239.251C435.904 239.318 436.014 239.416 436.09 239.534C436.166 239.653 436.206 239.788 436.205 239.925H429.278V240.179H429.105C429.097 240.104 429.071 240.032 429.028 239.968C428.984 239.904 428.925 239.851 428.855 239.811C428.721 239.706 428.551 239.644 428.374 239.636V239.023H434.908Z" fill="#EA9B00"/>
<path d="M434.303 231.09C434.56 231.086 434.815 231.134 435.05 231.231C435.284 231.328 435.492 231.471 435.658 231.651C436.015 232.01 436.211 232.479 436.205 232.964C436.203 233.402 436.048 233.829 435.763 234.181C435.599 234.393 435.379 234.565 435.125 234.681C434.87 234.797 434.587 234.854 434.303 234.847H430.507C429.938 234.877 429.378 234.701 428.951 234.356C428.752 234.175 428.597 233.957 428.498 233.717C428.398 233.477 428.356 233.22 428.374 232.964C428.374 231.712 429.085 231.09 430.507 231.09H434.303ZM433.717 231.712H430.959C429.864 231.712 429.316 232.132 429.316 232.964C429.316 233.796 429.864 234.216 430.959 234.216H433.717C434.09 234.23 434.457 234.124 434.754 233.919C434.902 233.804 435.02 233.66 435.098 233.497C435.176 233.335 435.213 233.159 435.206 232.982C435.205 232.815 435.163 232.65 435.085 232.499C435.008 232.348 434.895 232.214 434.754 232.106C434.473 231.863 434.104 231.723 433.717 231.712Z" fill="#EA9B00"/>
<path d="M434.303 223.158C434.56 223.153 434.815 223.201 435.05 223.298C435.284 223.395 435.492 223.539 435.658 223.718C436.015 224.077 436.211 224.546 436.205 225.031C436.203 225.47 436.048 225.896 435.763 226.248C435.599 226.46 435.379 226.632 435.125 226.748C434.87 226.864 434.587 226.921 434.303 226.914H430.507C429.938 226.944 429.378 226.768 428.951 226.424C428.752 226.242 428.597 226.024 428.498 225.784C428.398 225.544 428.356 225.287 428.374 225.031C428.374 223.779 429.085 223.158 430.507 223.158H434.303ZM433.717 223.779H430.959C429.864 223.779 429.316 224.2 429.316 225.031C429.316 225.863 429.864 226.284 430.959 226.284H433.717C434.102 226.298 434.48 226.186 434.783 225.968C434.931 225.853 435.049 225.709 435.127 225.547C435.205 225.385 435.242 225.209 435.235 225.031C435.233 224.864 435.192 224.7 435.114 224.549C435.036 224.397 434.923 224.263 434.783 224.156C434.492 223.913 434.111 223.779 433.717 223.779Z" fill="#EA9B00"/>
<path d="M434.908 217.825C435.215 217.819 435.517 217.898 435.773 218.053C435.906 218.121 436.016 218.22 436.092 218.34C436.168 218.46 436.207 218.597 436.205 218.736H429.278V218.981H429.105C429.095 218.907 429.068 218.835 429.025 218.772C428.982 218.708 428.924 218.654 428.855 218.613C428.718 218.511 428.551 218.45 428.374 218.438V217.825H434.908Z" fill="#EA9B00"/>
<path d="M434.908 213.211C435.216 213.2 435.519 213.28 435.773 213.439C435.904 213.506 436.014 213.604 436.09 213.722C436.166 213.841 436.206 213.976 436.205 214.113H429.278V214.367H429.105C429.097 214.292 429.07 214.22 429.027 214.156C428.983 214.093 428.925 214.039 428.855 213.999C428.721 213.894 428.551 213.832 428.374 213.824V213.211H434.908Z" fill="#EA9B00"/>
<path d="M434.908 208.597C435.214 208.587 435.516 208.664 435.773 208.816C435.905 208.884 436.015 208.983 436.091 209.103C436.167 209.224 436.206 209.36 436.205 209.498H429.278V209.752H429.105C429.097 209.678 429.071 209.605 429.028 209.542C428.984 209.478 428.925 209.424 428.855 209.385C428.721 209.277 428.552 209.213 428.374 209.201V208.597H434.908Z" fill="#EA9B00"/>
<path d="M434.908 203.974C435.215 203.967 435.517 204.046 435.773 204.201C435.904 204.268 436.014 204.366 436.09 204.485C436.166 204.603 436.206 204.738 436.205 204.875H429.278V205.129H429.105C429.095 205.055 429.068 204.984 429.025 204.92C428.982 204.856 428.924 204.802 428.855 204.762C428.718 204.659 428.551 204.598 428.374 204.586V203.974H434.908Z" fill="#EA9B00"/>
<path d="M434.908 199.359C435.216 199.348 435.519 199.428 435.773 199.587C435.904 199.654 436.014 199.752 436.09 199.87C436.166 199.989 436.206 200.124 436.205 200.261H429.278V200.515H429.105C429.097 200.44 429.071 200.368 429.028 200.304C428.984 200.24 428.925 200.186 428.855 200.147C428.721 200.04 428.552 199.975 428.374 199.963V199.359H434.908Z" fill="#EA9B00"/>
<path d="M434.303 192.136C434.561 192.133 434.816 192.183 435.05 192.281C435.285 192.379 435.492 192.524 435.658 192.705C436.015 193.064 436.211 193.533 436.205 194.018C436.203 194.453 436.048 194.877 435.763 195.226C435.599 195.439 435.38 195.612 435.125 195.73C434.871 195.847 434.588 195.906 434.303 195.901H430.507C429.949 195.916 429.405 195.734 428.989 195.393C428.791 195.213 428.637 194.996 428.537 194.758C428.438 194.519 428.395 194.264 428.413 194.009C428.376 193.749 428.407 193.484 428.502 193.236C428.598 192.988 428.755 192.764 428.962 192.581C429.169 192.399 429.42 192.262 429.695 192.184C429.97 192.105 430.261 192.085 430.546 192.127L434.303 192.136ZM433.717 192.757H430.959C429.864 192.757 429.316 193.177 429.316 194.018C429.316 194.85 429.864 195.27 430.959 195.27H433.717C434.103 195.281 434.481 195.166 434.783 194.946C434.93 194.832 435.047 194.69 435.125 194.529C435.203 194.368 435.241 194.194 435.235 194.018C435.242 193.843 435.205 193.67 435.127 193.51C435.048 193.351 434.931 193.21 434.783 193.099C434.487 192.869 434.106 192.75 433.717 192.766V192.757Z" fill="#EA9B00"/>
<path d="M434.303 184.886C434.561 184.883 434.816 184.933 435.05 185.031C435.285 185.13 435.492 185.274 435.658 185.455C436.015 185.814 436.211 186.283 436.205 186.768C436.203 187.204 436.048 187.627 435.763 187.977C435.599 188.19 435.38 188.362 435.125 188.48C434.871 188.598 434.588 188.656 434.303 188.651H430.507C429.939 188.677 429.381 188.501 428.951 188.16C428.753 187.978 428.6 187.76 428.5 187.52C428.401 187.28 428.358 187.024 428.374 186.768C428.338 186.508 428.369 186.243 428.464 185.995C428.559 185.747 428.717 185.523 428.924 185.34C429.131 185.158 429.382 185.021 429.657 184.942C429.932 184.864 430.223 184.844 430.507 184.886H434.303ZM433.717 185.516H430.959C429.864 185.516 429.316 185.928 429.316 186.768C429.316 187.609 429.864 188.02 430.959 188.02H433.717C434.104 188.035 434.483 187.92 434.783 187.696C434.931 187.583 435.049 187.441 435.127 187.28C435.205 187.119 435.242 186.944 435.235 186.768C435.242 186.594 435.205 186.42 435.127 186.261C435.048 186.101 434.931 185.96 434.783 185.849C434.483 185.628 434.102 185.518 433.717 185.542V185.516Z" fill="#EA9B00"/>
<path d="M434.303 177.697C434.56 177.693 434.815 177.741 435.05 177.838C435.284 177.935 435.492 178.078 435.658 178.257C436.015 178.617 436.211 179.086 436.205 179.571C436.201 180.009 436.047 180.434 435.763 180.788C435.599 181 435.379 181.172 435.125 181.288C434.87 181.404 434.587 181.461 434.303 181.453H430.507C429.938 181.484 429.378 181.307 428.951 180.963C428.753 180.781 428.6 180.563 428.5 180.323C428.401 180.083 428.358 179.827 428.374 179.571C428.374 178.319 429.085 177.697 430.507 177.697H434.303ZM433.717 178.319H430.959C429.864 178.319 429.316 178.739 429.316 179.571C429.316 180.403 429.864 180.823 430.959 180.823H433.717C434.092 180.831 434.459 180.72 434.754 180.508C434.901 180.392 435.018 180.248 435.096 180.086C435.174 179.924 435.212 179.748 435.206 179.571C435.213 179.396 435.176 179.223 435.098 179.063C435.019 178.904 434.902 178.763 434.754 178.652C434.464 178.431 434.095 178.312 433.717 178.319Z" fill="#EA9B00"/>
<path d="M434.303 170.473C434.561 170.471 434.816 170.521 435.05 170.619C435.285 170.717 435.492 170.862 435.658 171.043C436.014 171.399 436.209 171.865 436.205 172.347C436.205 172.786 436.05 173.212 435.763 173.564C435.599 173.777 435.38 173.95 435.125 174.068C434.871 174.185 434.588 174.244 434.303 174.239H430.507C429.937 174.265 429.378 174.086 428.951 173.739C428.752 173.558 428.597 173.34 428.498 173.1C428.398 172.86 428.356 172.603 428.374 172.347C428.34 172.087 428.371 171.824 428.468 171.577C428.564 171.33 428.721 171.107 428.928 170.926C429.135 170.744 429.385 170.609 429.659 170.53C429.933 170.452 430.224 170.432 430.507 170.473H434.303ZM433.717 171.095H430.959C429.864 171.095 429.316 171.515 429.316 172.347C429.316 173.179 429.864 173.608 430.959 173.608H433.717C434.103 173.619 434.481 173.504 434.783 173.284C434.931 173.169 435.049 173.025 435.127 172.863C435.205 172.701 435.242 172.524 435.235 172.347C435.235 172.18 435.194 172.015 435.116 171.864C435.038 171.712 434.924 171.578 434.783 171.472C434.494 171.226 434.112 171.091 433.717 171.095Z" fill="#EA9B00"/>
<path d="M434.908 165.859C435.216 165.848 435.519 165.928 435.773 166.087C435.904 166.154 436.014 166.252 436.09 166.37C436.166 166.489 436.206 166.624 436.205 166.761H429.278V167.015H429.105C429.097 166.94 429.071 166.868 429.028 166.804C428.984 166.74 428.925 166.686 428.855 166.647C428.721 166.54 428.552 166.475 428.374 166.463V165.859H434.908Z" fill="#EA9B00"/>
<path d="M434.303 158.618C434.561 158.615 434.816 158.665 435.05 158.763C435.285 158.862 435.492 159.007 435.658 159.187C436.014 159.544 436.209 160.01 436.205 160.492C436.205 160.93 436.05 161.357 435.763 161.709C435.599 161.922 435.38 162.095 435.125 162.212C434.871 162.33 434.588 162.389 434.303 162.383H430.507C429.937 162.41 429.378 162.23 428.951 161.884C428.752 161.703 428.597 161.485 428.498 161.245C428.398 161.004 428.356 160.748 428.374 160.492C428.34 160.232 428.371 159.968 428.468 159.722C428.564 159.475 428.721 159.252 428.928 159.07C429.135 158.888 429.385 158.753 429.659 158.675C429.933 158.596 430.224 158.577 430.507 158.618H434.303ZM433.717 159.24H430.959C429.864 159.24 429.316 159.66 429.316 160.492C429.316 161.324 429.864 161.753 430.959 161.753H433.717C434.103 161.764 434.481 161.649 434.783 161.429C434.931 161.314 435.049 161.17 435.127 161.007C435.205 160.845 435.242 160.669 435.235 160.492C435.235 160.325 435.194 160.159 435.116 160.008C435.038 159.857 434.924 159.723 434.783 159.616C434.491 159.377 434.109 159.248 433.717 159.257V159.24Z" fill="#EA9B00"/>
<path d="M434.908 154.021C435.216 154.01 435.519 154.09 435.773 154.249C435.904 154.316 436.014 154.414 436.09 154.532C436.166 154.651 436.206 154.786 436.205 154.923H429.278V155.177H429.105C429.097 155.102 429.071 155.03 429.028 154.966C428.984 154.902 428.925 154.848 428.855 154.809C428.721 154.702 428.552 154.637 428.374 154.625V154.021H434.908Z" fill="#EA9B00"/>
<path d="M434.303 146.798C434.561 146.795 434.816 146.845 435.05 146.943C435.285 147.041 435.492 147.186 435.657 147.367C436.014 147.723 436.209 148.189 436.205 148.671C436.203 149.109 436.048 149.536 435.763 149.888C435.599 150.101 435.38 150.274 435.125 150.392C434.871 150.509 434.588 150.568 434.303 150.563H430.507C429.937 150.589 429.377 150.41 428.951 150.064C428.752 149.882 428.597 149.664 428.498 149.424C428.398 149.184 428.356 148.927 428.374 148.671C428.374 147.419 429.085 146.798 430.507 146.798H434.303ZM433.717 147.419H430.959C429.864 147.419 429.316 147.84 429.316 148.671C429.316 149.503 429.864 149.932 430.959 149.932H433.717C434.103 149.943 434.481 149.828 434.783 149.608C434.931 149.493 435.049 149.349 435.127 149.187C435.205 149.025 435.242 148.848 435.235 148.671C435.235 148.504 435.194 148.339 435.116 148.188C435.038 148.036 434.924 147.903 434.783 147.796C434.494 147.55 434.112 147.415 433.717 147.419Z" fill="#EA9B00"/>
<path d="M434.908 142.183C435.214 142.174 435.516 142.25 435.773 142.402C435.904 142.471 436.014 142.571 436.089 142.691C436.165 142.811 436.205 142.947 436.205 143.085H429.278V143.339H429.105C429.097 143.264 429.071 143.192 429.028 143.128C428.984 143.064 428.925 143.011 428.855 142.971C428.721 142.864 428.552 142.799 428.374 142.787V142.183H434.908Z" fill="#EA9B00"/>
<path d="M434.303 134.977C434.561 134.973 434.817 135.021 435.052 135.12C435.286 135.219 435.494 135.364 435.658 135.546C436.015 135.902 436.211 136.368 436.205 136.851C436.203 137.289 436.048 137.715 435.763 138.068C435.599 138.281 435.38 138.454 435.125 138.571C434.871 138.689 434.588 138.748 434.303 138.742H430.507C429.937 138.769 429.378 138.59 428.951 138.243C428.752 138.062 428.597 137.844 428.498 137.604C428.398 137.364 428.356 137.107 428.374 136.851C428.374 135.599 429.085 134.977 430.507 134.977H434.303ZM433.717 135.599H430.959C429.864 135.599 429.316 136.019 429.316 136.851C429.316 137.683 429.864 138.112 430.959 138.112H433.717C434.103 138.123 434.481 138.008 434.783 137.788C434.931 137.673 435.049 137.529 435.127 137.367C435.205 137.204 435.242 137.028 435.235 136.851C435.235 136.684 435.194 136.519 435.116 136.367C435.038 136.216 434.924 136.082 434.783 135.975C434.497 135.723 434.115 135.582 433.717 135.581V135.599Z" fill="#EA9B00"/>
<path d="M434.908 130.345C435.214 130.336 435.516 130.412 435.773 130.564C435.904 130.633 436.014 130.733 436.089 130.853C436.165 130.973 436.205 131.109 436.205 131.247H429.278V131.475H429.105C429.097 131.4 429.071 131.328 429.028 131.264C428.984 131.2 428.925 131.146 428.855 131.107C428.721 131 428.552 130.935 428.374 130.923V130.319L434.908 130.345Z" fill="#EA9B00"/>
<path d="M434.908 125.722C435.215 125.715 435.517 125.795 435.773 125.95C435.906 126.018 436.016 126.117 436.092 126.237C436.168 126.357 436.207 126.494 436.205 126.633H429.278V126.878H429.105C429.095 126.804 429.068 126.732 429.025 126.669C428.982 126.605 428.924 126.551 428.855 126.51C428.718 126.408 428.551 126.347 428.374 126.335V125.722H434.908Z" fill="#EA9B00"/>
<path d="M423.897 108.342L431.728 101.206L448.513 101.241L440.712 108.342H423.897Z" fill="url(#paint2_linear)"/>
<path opacity="0.2" d="M366.024 51.136L392.289 37.2305L392.289 37.2305L392.293 37.2281C396.179 35.1201 401.671 35.3426 407.866 38.5957C409.955 39.7278 411.909 41.0525 413.699 42.5484L413.956 42.7633L414.253 42.6071L425.273 36.8019L425.292 36.792L425.31 36.7806C431.158 33.0334 439.716 33.1384 449.385 38.2292L449.386 38.2293C461.603 44.6544 472.254 57.3312 477.935 70.7722L478.057 71.0611L478.37 71.0769C480.494 71.1845 482.555 71.7656 484.37 72.7666L484.37 72.7667L484.379 72.7712C488.313 74.8415 491.896 78.4093 494.497 82.5166C497.099 86.6259 498.688 91.2294 498.688 95.348V95.349V95.3501V95.3512V95.3523V95.3533V95.3544V95.3555V95.3566V95.3576V95.3587V95.3598V95.3609V95.3619V95.363V95.3641V95.3652V95.3662V95.3673V95.3684V95.3694V95.3705V95.3716V95.3726V95.3737V95.3748V95.3758V95.3769V95.378V95.379V95.3801V95.3812V95.3822V95.3833V95.3844V95.3854V95.3865V95.3876V95.3886V95.3897V95.3908V95.3918V95.3929V95.3939V95.395V95.3961V95.3971V95.3982V95.3992V95.4003V95.4014V95.4024V95.4035V95.4045V95.4056V95.4066V95.4077V95.4088V95.4098V95.4109V95.4119V95.413V95.414V95.4151V95.4161V95.4172V95.4183V95.4193V95.4204V95.4214V95.4225V95.4235V95.4246V95.4256V95.4267V95.4277V95.4288V95.4298V95.4309V95.4319V95.433V95.434V95.4351V95.4361V95.4372V95.4382V95.4393V95.4403V95.4414V95.4424V95.4435V95.4445V95.4455V95.4466V95.4476V95.4487V95.4497V95.4508V95.4518V95.4529V95.4539V95.4549V95.456V95.457V95.4581V95.4591V95.4601V95.4612V95.4622V95.4633V95.4643V95.4654V95.4664V95.4674V95.4685V95.4695V95.4706V95.4716V95.4726V95.4737V95.4747V95.4757V95.4768V95.4778V95.4789V95.4799V95.4809V95.482V95.483V95.484V95.4851V95.4861V95.4871V95.4882V95.4892V95.4902V95.4913V95.4923V95.4933V95.4944V95.4954V95.4964V95.4975V95.4985V95.4995V95.5006V95.5016V95.5026V95.5037V95.5047V95.5057V95.5068V95.5078V95.5088V95.5098V95.5109V95.5119V95.5129V95.514V95.515V95.516V95.517V95.5181V95.5191V95.5201V95.5212V95.5222V95.5232V95.5242V95.5253V95.5263V95.5273V95.5283V95.5294V95.5304V95.5314V95.5324V95.5335V95.5345V95.5355V95.5365V95.5376V95.5386V95.5396V95.5406V95.5417V95.5427V95.5437V95.5447V95.5458V95.5468V95.5478V95.5488V95.5498V95.5509V95.5519V95.5529V95.5539V95.555V95.556V95.557V95.558V95.559V95.5601V95.5611V95.5621V95.5631V95.5641V95.5652V95.5662V95.5672V95.5682V95.5692V95.5702V95.5713V95.5723V95.5733V95.5743V95.5753V95.5764V95.5774V95.5784V95.5794V95.5804V95.5814V95.5825V95.5835V95.5845V95.5855V95.5865V95.5875V95.5886V95.5896V95.5906V95.5916V95.5926V95.5936V95.5947V95.5957V95.5967V95.5977V95.5987V95.5997V95.6007V95.6018V95.6028V95.6038V95.6048V95.6058V95.6068V95.6078V95.6089V95.6099V95.6109V95.6119V95.6129V95.6139V95.6149V95.616V95.617V95.618V95.619V95.62V95.621V95.622V95.623V95.6241V95.6251V95.6261V95.6271V95.6281V95.6291V95.6301V95.6311V95.6321V95.6332V95.6342V95.6352V95.6362V95.6372V95.6382V95.6392V95.6402V95.6413V95.6423V95.6433V95.6443V95.6453V95.6463V95.6473V95.6483V95.6493V95.6503V95.6514V95.6524V95.6534V95.6544V95.6554V95.6564V95.6574V95.6584V95.6594V95.6604V95.6615V95.6625V95.6635V95.6645V95.6655V95.6665V95.6675V95.6685V95.6695V95.6705V95.6716V95.6726V95.6736V95.6746V95.6756V95.6766V95.6776V95.6786V95.6796V95.6806V95.6816V95.6827V95.6837V95.6847V95.6857V95.6867V95.6877V95.6887V95.6897V95.6907V95.6917V95.6927V95.6938V95.6948V95.6958V95.6968V95.6978V95.6988V95.6998V95.7008V95.7018V95.7028V95.7038V95.7049V95.7059V95.7069V95.7079V95.7089V95.7099V95.7109V95.7119V95.7129V95.7139V95.7149V95.716V95.717V95.718V95.719V95.72V95.721V95.722V95.723V95.724V95.725V95.726V95.7271V95.7281V95.7291V95.7301V95.7311V95.7321V95.7331V95.7341V95.7351V95.7361V95.7372V95.7382V95.7392V95.7402V95.7412V95.7422V95.7432V95.7442V95.7452V95.7462V95.7472V95.7483V95.7493V95.7503V95.7513V95.7523V95.7533V95.7543V95.7553V95.7563V95.7574V95.7584V95.7594V95.7604V95.7614V95.7624V95.7634V95.7644V95.7654V95.7665V95.7675V95.7685V95.7695V95.7705V95.7715V95.7725V95.7735V95.7746V95.7756V95.7766V95.7776V95.7786V95.7796V95.7806V95.7816V95.7827V95.7837V95.7847V95.7857V95.7867V95.7877V95.7887V95.7897V95.7908V95.7918V95.7928V95.7938V95.7948V95.7958V95.7968V95.7979V95.7989V95.7999V95.8009V95.8019V95.8029V95.8039V95.805V95.806V95.807V95.808V95.809V95.81V95.8111V95.8121V95.8131V95.8141V95.8151V95.8161V95.8172V95.8182V95.8192V95.8202V95.8212V95.8222V95.8233V95.8243V95.8253V95.8263V95.8273V95.8283V95.8294V95.8304V95.8314V95.8324V95.8334V95.8345V95.8355V95.8365V95.8375V95.8385V95.8396V95.8406V95.8416V95.8426V95.8436V95.8447V95.8457V95.8467V95.8477V95.8487V95.8498V95.8508V95.8518V95.8528V95.8539V95.8549V95.8559V95.8569V95.8579V95.859V95.86V95.861V95.862V95.8631V95.8641V95.8651V95.8661V95.8672V95.8682V95.8692V95.8702V95.8713V95.8723V95.8733V96.3314L499.144 96.3714C501.735 96.5987 504.232 97.3599 506.448 98.5953L506.448 98.5954L506.459 98.6011C511.517 101.262 516.119 105.844 519.457 111.112C522.796 116.383 524.841 122.295 524.841 127.596C524.841 132.842 522.844 136.413 519.728 138.107C519.726 138.108 519.724 138.109 519.722 138.11L519.648 138.147L519.641 138.151L493.218 152.127L487.473 126.916L487.421 126.691L487.218 126.584L408.334 85.0901L408.332 85.0892C398.391 79.9079 389.942 68.5263 387.101 57.5375L387.03 57.2622L386.757 57.1826L366.024 51.136Z" fill="#EA9B00" stroke="#EA9B00"/>
<path opacity="0.7" d="M381.006 52.4879C384.725 54.5103 388.058 57.0714 390.873 60.0705C395.005 47.9699 407.611 44.2136 422.533 52.0676C434.87 58.5557 445.593 71.3306 451.357 84.8584C453.556 84.9662 455.692 85.5678 457.574 86.6096C465.626 90.8387 472.15 101.144 472.15 109.62C472.15 109.804 472.15 109.97 472.15 110.145C474.81 110.382 477.376 111.167 479.654 112.439C489.954 117.859 498.304 131.037 498.304 141.868C498.304 152.699 489.954 157.103 479.654 151.683L381.006 99.866C368.582 93.3254 358.503 77.4159 358.503 64.3346C358.503 51.2533 368.582 45.9473 381.006 52.4879Z" fill="#142D4B" stroke="#EA9B00" stroke-width="2"/>
<path opacity="0.2" d="M174.929 33.5633L161.108 37.472L160.835 37.5492L160.762 37.8231C158.827 45.0059 153.063 52.4601 146.279 55.8944L146.505 56.3405L146.279 55.8944L92.1559 83.3004L91.9487 83.4053L91.8952 83.6312L87.9969 100.094L70.0106 90.9013L69.9034 90.8465H69.8504C67.8298 89.7409 66.5262 87.4662 66.5262 84.1054C66.5262 80.6308 67.915 76.7567 70.1957 73.2967C72.4746 69.8394 75.6149 66.8405 79.0599 65.0959L79.06 65.096L79.0698 65.0908C80.5833 64.2816 82.2754 63.7835 84.0268 63.6332L84.4841 63.594V63.1351V63.1344V63.1337V63.1331V63.1324V63.1317V63.1311V63.1304V63.1297V63.1291V63.1284V63.1277V63.1271V63.1264V63.1257V63.1251V63.1244V63.1237V63.1231V63.1224V63.1217V63.1211V63.1204V63.1197V63.1191V63.1184V63.1177V63.1171V63.1164V63.1157V63.1151V63.1144V63.1137V63.1131V63.1124V63.1117V63.1111V63.1104V63.1097V63.1091V63.1084V63.1077V63.1071V63.1064V63.1057V63.1051V63.1044V63.1037V63.1031V63.1024V63.1017V63.1011V63.1004V63.0997V63.0991V63.0984V63.0977V63.0971V63.0964V63.0957V63.0951V63.0944V63.0937V63.0931V63.0924V63.0917V63.0911V63.0904V63.0897V63.0891V63.0884V63.0877V63.0871V63.0864V63.0857V63.0851V63.0844V63.0837V63.0831V63.0824V63.0817V63.0811V63.0804V63.0797V63.0791V63.0784V63.0777V63.077V63.0764V63.0757V63.0751V63.0744V63.0737V63.073V63.0724V63.0717V63.071V63.0704V63.0697V63.069V63.0684V63.0677V63.067V63.0664V63.0657V63.065V63.0644V63.0637V63.063V63.0624V63.0617V63.061V63.0604V63.0597V63.059V63.0584V63.0577V63.057V63.0564V63.0557V63.055V63.0544V63.0537V63.053V63.0524V63.0517V63.051V63.0504V63.0497V63.049V63.0484V63.0477V63.047V63.0464V63.0457V63.045V63.0444V63.0437V63.043V63.0424V63.0417V63.041V63.0404V63.0397V63.039V63.0384V63.0377V63.037V63.0364V63.0357V63.035V63.0344V63.0337V63.033V63.0324V63.0317V63.031V63.0304V63.0297V63.029V63.0284V63.0277V63.027V63.0264V63.0257V63.025V63.0244V63.0237V63.023V63.0224V63.0217V63.021V63.0204V63.0197V63.019V63.0184V63.0177V63.017V63.0164V63.0157V63.015V63.0144V63.0137V63.013V63.0124V63.0117V63.011V63.0104V63.0097V63.009V63.0084V63.0077V63.007V63.0064V63.0057V63.005V63.0044V63.0037V63.003V63.0024V63.0017V63.001V63.0004V62.9997V62.999V62.9984V62.9977V62.997V62.9963V62.9957V62.995V62.9944V62.9937V62.993V62.9923V62.9917V62.991V62.9903V62.9897V62.989V62.9883V62.9877V62.987V62.9863V62.9857V62.985V62.9843V62.9837V62.983V62.9823V62.9817V62.981V62.9803V62.9797V62.979V62.9783V62.9777V62.977V62.9763V62.9757V62.975V62.9743V62.9737V62.973V62.9723V62.9717V62.971V62.9703V62.9697V62.969V62.9683V62.9677V62.967V62.9663V62.9657V62.965V62.9643V62.9637V62.963V62.9623V62.9617V62.961V62.9603V62.9597V62.959V62.9583V62.9577V62.957V62.9563V62.9557V62.955V62.9543V62.9537V62.953V62.9523V62.9517V62.951V62.9503V62.9497V62.949V62.9483V62.9477V62.947V62.9463V62.9457V62.945V62.9443V62.9437V62.943V62.9423V62.9417V62.941V62.9403V62.9397V62.939V62.9383V62.9377V62.937V62.9363V62.9357V62.935V62.9343V62.9337V62.933V62.9323V62.9317V62.931V62.9303V62.9297V62.929V62.9283V62.9277V62.927V62.9263V62.9257V62.925V62.9243V62.9237V62.923V62.9223V62.9217V62.921V62.9203V62.9197V62.919V62.9183V62.9177V62.917V62.9163V62.9156V62.915V62.9143V62.9137V62.913V62.9123V62.9116V62.911V62.9103V62.9096V62.909V62.9083V62.9076V62.907V62.9063V62.9056V62.905V62.9043V62.9036V62.903V62.9023V62.9016V62.901V62.9003V62.8996V62.899V62.8983V62.8976V62.897V62.8963V62.8956V62.895V62.8943V62.8936V62.893V62.8923V62.8916V62.891V62.8903V62.8896V62.889V62.8883V62.8876V62.887V62.8863V62.8856V62.885V62.8843V62.8836V62.883V62.8823V62.8816V62.881V62.8803V62.8796V62.879V62.8783V62.8776V62.877V62.8763V62.8756V62.875V62.8743V62.8736V62.873V62.8723V62.8716V62.871V62.8703V62.8696V62.869V62.8683V62.8676V62.867V62.8663V62.8656V62.865V62.8643V62.8636V62.863V62.8623V62.8616V62.861V62.8603V62.8596V62.859V62.8583V62.8576V62.857V62.8563V62.8556V62.855V62.8543V62.8536V62.853V62.8523V62.8516V62.851V62.8503V62.8496V62.849V62.8483V62.8476V62.847V62.8463V62.8456V62.845V62.8443V62.8436V62.843V62.8423V62.8416V62.841V62.8403V62.8396V62.839V62.8383V62.8376V62.8369V62.8363V62.8356V62.8349V62.8343V62.8336V62.8329V62.8323V62.8316V62.8309V62.8303V62.8296V62.8289V62.8283V62.8276V62.8269V62.8263V62.8256V62.8249V62.8243V62.8236V62.8229V62.8223V62.8216V62.8209V62.8203V62.8196V62.8189V62.8183V62.8176V62.8169V62.8163V62.8156V62.8149V62.8143V62.8136V62.8129V62.8123V62.8116V62.8109V62.8103V62.8096V62.8089V62.8083V62.8076V62.8069V62.8063V62.8056V62.8049V62.8043V62.8036V62.8029V62.8023V62.8016V62.8009V62.8003V62.7996V62.7989V62.7983V62.7976V62.7969V62.7963V62.7956V62.7949V62.7943V62.7936C84.4841 60.1246 85.5582 57.115 87.3325 54.4152C89.105 51.7181 91.5463 49.3765 94.2218 48.022L94.2219 48.0221L94.2327 48.0163C95.4621 47.3555 96.8493 46.9697 98.2792 46.8931L98.587 46.8766L98.7105 46.5942C102.581 37.7452 109.895 29.3998 118.243 25.169C124.858 21.818 130.676 21.7696 134.637 24.2034L134.654 24.2139L134.672 24.2231L142.234 28.0669L142.52 28.2127L142.772 28.0121C144 27.0326 145.337 26.1706 146.761 25.44C150.958 23.3223 154.699 23.1911 157.313 24.5617L157.318 24.5641L174.929 33.5633Z" fill="#EA9B00" stroke="#EA9B00"/>
<path opacity="0.7" d="M165.126 34.4946C162.607 35.8284 160.337 37.519 158.4 39.5029C155.518 31.5088 146.87 28.9959 136.666 34.2494C128.192 38.5398 120.813 46.9805 116.902 55.929C115.386 55.9783 113.905 56.3629 112.588 57.0497C107.063 59.8516 102.576 66.6812 102.576 72.2587C102.576 72.3813 102.576 72.4864 102.576 72.6089C100.759 72.7648 99.0007 73.2819 97.4261 74.1237C90.3544 77.7049 84.6183 86.3819 84.6183 93.5793C84.6183 100.777 90.3832 103.64 97.4261 100.059L165.126 65.8056C173.668 61.489 180.586 50.9731 180.586 42.3223C180.586 33.6715 173.668 30.1779 165.126 34.4946Z" fill="#142D4B" stroke="#EA9B00" stroke-width="2"/>
<path opacity="0.6" d="M328.727 248.104L308.643 237.29L328.727 226.475L348.81 237.29L328.727 248.104Z" fill="#142D4B" stroke="#EA9B00"/>
<path d="M328.727 208.395L307.588 197.013V219.778L328.727 231.161L349.865 219.778V197.013L328.727 208.395Z" fill="#908E9B" stroke="#908E9B" stroke-width="0.2"/>
<path d="M328.727 231.161L307.588 219.778V197.013L328.727 208.395V231.161Z" fill="#142D4B" stroke="#EA9B00" stroke-width="0.75"/>
<path d="M349.865 219.778L328.727 231.161V208.395L349.865 197.013V219.778Z" fill="#142D4B" stroke="#EA9B00" stroke-width="0.75"/>
<path d="M328.727 208.395L307.588 197.013L328.727 185.63L349.865 197.013L328.727 208.395Z" fill="#142D4B" stroke="#EA9B00" stroke-width="0.75"/>
<path d="M328.727 175.123L307.588 163.74V186.506L328.727 197.888L349.865 186.506V163.74L328.727 175.123Z" fill="#908E9B" stroke="#908E9B" stroke-width="0.2"/>
<path d="M328.727 197.888L307.588 186.506V163.74L328.727 175.123V197.888Z" fill="#142D4B" stroke="#EA9B00" stroke-width="0.75"/>
<path d="M349.865 186.506L328.727 197.888V175.123L349.865 163.74V186.506Z" fill="#142D4B" stroke="#EA9B00" stroke-width="0.75"/>
<path d="M328.727 175.123L307.588 163.731L328.727 152.358L349.865 163.731L328.727 175.123Z" fill="#142D4B" stroke="#EA9B00" stroke-width="0.75"/>
<path opacity="0.4" d="M123.003 417.451V408.161L121.139 407.285C120.621 410.175 116.883 412.083 113.751 412.477L92.4779 423.86L83.1866 426.916L53.545 412.889L54.2656 412.539C51.7387 411.462 50.3743 408.993 49.0003 406.742L47.0018 407.828L45.8199 408.134V417.556C45.8199 418.755 46.6847 419.964 48.4238 420.874L78.1231 436.504C80.0783 437.406 82.2392 437.876 84.4309 437.876C86.6226 437.876 88.7835 437.406 90.7388 436.504L120.438 420.874C122.148 419.999 123.013 418.799 123.042 417.617C123.047 417.565 123.047 417.512 123.042 417.459L123.003 417.451Z" fill="#EA9B00" stroke="#142D4B" stroke-width="0.2"/>
<path opacity="0.8" d="M123.003 409.211V403.082L121.139 402.137C120.621 405.035 116.883 406.935 113.751 407.338L92.4778 418.668L83.1866 421.732L53.545 407.793L54.2272 407.434C51.7002 406.348 50.3358 403.888 48.9618 401.638L46.9633 402.723L45.7815 403.021V409.308C45.7815 410.516 46.6462 411.716 48.3853 412.626L78.0846 428.299C80.0398 429.202 82.2008 429.672 84.3925 429.672C86.5842 429.672 88.7451 429.202 90.7003 428.299L120.4 412.67C122.11 411.794 122.975 410.595 123.003 409.413C123.008 409.36 123.008 409.308 123.003 409.255V409.211Z" fill="#EA9B00" stroke="white" stroke-width="0.2"/>
<path opacity="0.1" d="M113.751 407.338L92.4778 418.668L84.3876 421.295V429.586C86.5774 429.65 88.7493 429.208 90.7003 428.299L120.4 412.67C122.11 411.794 122.975 410.595 123.003 409.413C123.008 409.36 123.008 409.308 123.003 409.255V403.126L121.303 402.251H121.12C120.563 405.07 116.844 406.944 113.751 407.338Z" fill="#EA9B00" stroke="#142D4B" stroke-width="0.2"/>
<path d="M78.0846 422.021L48.3854 406.41C44.9072 404.58 44.9072 401.603 48.3854 399.773L78.0846 384.152C80.0398 383.25 82.2008 382.779 84.3925 382.779C86.5842 382.779 88.7451 383.25 90.7003 384.152L120.4 399.773C123.868 401.603 123.868 404.58 120.4 406.41L90.7003 422.021C88.7451 422.924 86.5842 423.394 84.3925 423.394C82.2008 423.394 80.0398 422.924 78.0846 422.021V422.021Z" fill="#0A1A2B" stroke="#908E9B" stroke-width="0.2"/>
<path d="M78.0846 422.021L48.3854 406.41C44.9072 404.58 44.9072 401.603 48.3854 399.773L78.0846 384.152C80.0398 383.25 82.2008 382.779 84.3925 382.779C86.5842 382.779 88.7451 383.25 90.7003 384.152L120.4 399.773C123.868 401.603 123.868 404.58 120.4 406.41L90.7003 422.021C88.7451 422.924 86.5842 423.394 84.3925 423.394C82.2008 423.394 80.0398 422.924 78.0846 422.021V422.021Z" fill="#0A1A2B" stroke="#908E9B" stroke-width="0.2"/>
<g opacity="0.51">
<path opacity="0.51" d="M78.0846 422.021L48.3854 406.41C44.9072 404.58 44.9072 401.603 48.3854 399.773L78.0846 384.152C80.0398 383.25 82.2008 382.779 84.3925 382.779C86.5842 382.779 88.7451 383.25 90.7003 384.152L120.4 399.773C123.868 401.603 123.868 404.58 120.4 406.41L90.7003 422.021C88.7451 422.924 86.5842 423.394 84.3925 423.394C82.2008 423.394 80.0398 422.924 78.0846 422.021Z" fill="#908E9B" stroke="#EA9B00" stroke-width="0.4"/>
</g>
<path d="M120.4 406.41L90.7003 422.021C88.7451 422.924 86.5842 423.394 84.3925 423.394C82.2008 423.394 80.0398 422.924 78.0846 422.021L48.3853 406.41C47.7401 406.131 47.173 405.722 46.7268 405.213C46.2807 404.705 45.9673 404.111 45.8103 403.476C45.6085 404.798 46.4637 406.164 48.3853 407.171L78.0846 422.801C80.0398 423.703 82.2008 424.173 84.3925 424.173C86.5842 424.173 88.7451 423.703 90.7003 422.801L120.4 407.171C122.321 406.164 123.176 404.798 122.975 403.476C122.817 404.111 122.503 404.705 122.057 405.213C121.611 405.721 121.044 406.13 120.4 406.41Z" fill="#0A1A2B" stroke="#EA9B00" stroke-width="0.2"/>
<path d="M63.7875 354.181V386.516C63.8191 386.916 63.9677 387.3 64.2178 387.63C64.4679 387.96 64.8103 388.222 65.2095 388.39L94.6974 403.897C96.8208 405.017 100.52 404.877 102.97 403.59C104.344 402.863 105.036 401.935 104.997 401.06V368.759L63.7875 354.181Z" fill="#142D4B" stroke="#EA9B00" stroke-width="0.8"/>
<path d="M96.9073 404.545C98.9883 404.832 101.116 404.497 102.97 403.59C104.344 402.863 105.036 401.935 104.997 401.06V368.759L97.0514 365.957H96.9073V404.545Z" fill="#142D4B" stroke="#EA9B00" stroke-width="0.8"/>
<path d="M94.6974 371.561L65.2095 356.054C63.0956 354.934 63.3551 352.99 65.8052 351.677C68.2553 350.389 71.9641 350.249 74.0875 351.37L103.566 366.877C105.689 367.997 105.42 369.95 102.97 371.255C100.52 372.542 96.8208 372.682 94.6974 371.561Z" fill="#142D4B" stroke="#EA9B00" stroke-width="0.8"/>
<path d="M97.6375 369.486C96.9622 369.486 96.3146 369.242 95.8371 368.806C95.3596 368.371 95.0913 367.781 95.0913 367.166V352.797C95.0913 347.894 91.1615 341.686 86.5015 339.243L79.7757 335.68C77.9885 334.743 76.3743 334.506 75.3462 335.049C74.3182 335.592 73.7321 336.975 73.7321 338.858V353.226C73.7321 353.842 73.4638 354.432 72.9863 354.867C72.5088 355.302 71.8611 355.547 71.1858 355.547C70.5106 355.547 69.8629 355.302 69.3854 354.867C68.9079 354.432 68.6396 353.842 68.6396 353.226V338.858C68.6396 335.224 70.1097 332.44 72.8 331.03C75.4904 329.62 78.8629 329.839 82.3219 331.661L89.0477 335.215C95.2931 338.508 100.184 346.222 100.184 352.797V367.166C100.184 367.781 99.9154 368.371 99.4379 368.806C98.9604 369.242 98.3128 369.486 97.6375 369.486Z" fill="#142D4B" stroke="#EA9B00" stroke-width="0.8"/>
</g>
<defs>
<linearGradient id="paint0_linear" x1="127.029" y1="246.711" x2="125.912" y2="87.5186" gradientUnits="userSpaceOnUse">
<stop stop-color="#52C7EA" stop-opacity="0"/>
<stop offset="0.7" stop-color="#EA9B00"/>
</linearGradient>
<linearGradient id="paint1_linear" x1="8063.73" y1="38903.5" x2="6461.55" y2="14741.8" gradientUnits="userSpaceOnUse">
<stop stop-color="#52C7EA" stop-opacity="0"/>
<stop offset="0.7" stop-color="#EA9B00"/>
</linearGradient>
<linearGradient id="paint2_linear" x1="436.234" y1="108.534" x2="436.186" y2="101.258" gradientUnits="userSpaceOnUse">
<stop stop-color="#52C7EA" stop-opacity="0.1"/>
<stop offset="0.35" stop-color="#52C7EA" stop-opacity="0.07"/>
<stop offset="0.76" stop-color="#52C7EA" stop-opacity="0"/>
</linearGradient>
<clipPath id="clip0">
<rect width="600" height="450" fill="white"/>
</clipPath>
</defs>
</svg>
