<svg width="260" height="260" viewBox="0 0 260 260" fill="none" xmlns="http://www.w3.org/2000/svg">
<path d="M230.533 102.087L231.136 106.289H230.081L228.574 105.838L187.125 72.6724L180.945 67.7201L175.971 63.9683L171.299 61.1169L165.27 57.9654L160.296 55.5642L155.774 53.6133L149.443 51.8124L142.962 50.7619L136.783 50.0115L129.548 49.4113L121.861 50.0115L114.777 51.2121L109.351 52.1126L103.472 53.9134L98.0464 56.0144L92.1681 58.5657L86.742 61.8672L82.2203 65.469L78.3014 68.6205L74.5333 71.772L70.6145 75.6739L66.3942 80.6263L62.9275 85.5786L59.913 90.531L56.8985 96.3838L54.6377 101.186L52.2261 108.99L51.0203 114.242L50.4174 119.495L49.8145 124.447V131.201L50.4174 138.404L51.6232 145.608L52.6783 151.31L54.1855 157.013L56.5971 161.815L58.5565 166.317L60.5159 170.519L64.2841 176.372L68.5043 181.025L72.4232 185.827L78.3014 191.53L123.519 228.297L128.342 232.199V234H126.835H123.067L117.791 233.55L112.968 232.799L107.241 231.749L101.664 230.248L97.142 228.898L92.6203 227.097L87.0435 224.996L81.4667 221.994L75.8899 219.143L70.4638 215.841L64.7362 211.639L59.0087 206.837L53.4319 200.984L48.3072 195.281L44.5391 190.029L40.9217 184.476L38.058 179.674L35.1942 173.521L32.4812 167.968L29.6174 160.915L27.9594 152.511L27.2058 146.058L26 134.952L26 126.999L26 119.645L27.2058 111.691L28.8638 104.788L30.6725 98.785L32.6319 92.7821L35.0435 86.9293L37.0029 82.7273L38.9623 78.8254L41.9768 74.0231L44.8406 69.8211L48.0058 65.469L51.171 61.8672L55.0899 57.6652L57.9536 54.6638L62.0232 51.2121L66.3942 47.7605L70.313 44.759L73.9304 42.0577L77.6985 39.6566L82.2203 37.2554L85.084 35.7547L91.2638 33.2035L96.5391 31.1025L101.061 29.6017L106.788 28.8514L112.667 27.5007L119.751 26.6003L125.478 26H131.055L135.878 26L142.812 26.6003L148.238 27.5007L154.417 28.8514L160.899 30.6522L166.626 32.4531L172.203 34.404L178.383 37.1053L183.809 40.2569L188.632 43.4084L195.113 47.9105L200.69 52.4127L205.212 56.9149L209.281 61.1169L212.296 64.8687L215.461 69.2208L218.325 73.2727L220.435 77.1746L222.394 80.4762L224.354 84.5281L226.162 88.7302L227.519 91.8817L228.574 95.1833L229.629 98.4849L230.533 102.087Z" fill="#EA9B00"/>
<path d="M122.012 137.804L202.951 202.935H204.157L216.365 188.228L217.27 186.277L216.365 184.626L137.687 121.296L134.974 119.645L131.507 118.745H128.342L125.478 119.645L122.765 121.296L120.957 122.797L119.901 125.198L118.846 128.049V130.9V133.602L119.901 135.703L122.012 137.804Z" fill="#EA9B00"/>
<path d="M165.27 227.697L160.748 228.747L87.9479 169.469L83.7276 164.817L79.9595 158.964L76.4928 152.961L74.2319 147.408L73.4783 141.706L72.2725 136.303V131.501V127.599L72.2725 123.547L73.1769 118.745L74.2319 114.543L76.4928 109.44L77.8493 105.688L79.2059 102.537L80.7131 99.6854L83.1247 95.7835L85.3856 92.9321L88.4001 89.6306L90.9624 86.9293L93.6754 84.378L97.5943 81.5267L101.212 79.4257L104.829 77.1746L108.296 75.6739L113.119 73.7229L117.038 72.6724L121.258 71.922L125.629 71.4718L129.397 71.4718H132.864L136.632 72.2222L140.4 72.9726L144.168 73.7229L147.333 74.6233L150.649 75.6739L153.815 77.1746L157.13 78.8254L160.296 80.4762L163.461 82.5772L166.174 84.8283L230.533 137.053L233.397 139.755L234 142.006L228.574 163.316H226.765L224.354 161.665L153.815 104.938L149.745 101.936L145.525 99.6854L141.606 97.8845L138.591 96.684L135.878 96.0837L132.864 95.7835H128.644L124.273 96.0837L119.751 96.684L116.284 97.8845L112.667 99.6854L109.049 101.936L105.733 104.938L103.02 108.24L100.458 111.841L98.3479 114.543L96.5392 117.694L95.3334 122.346V127.599V133.752L96.5392 139.755L98.3479 144.107L100.458 148.459L103.02 151.76L105.733 154.612L169.49 206.387L181.246 215.391L183.809 217.342V218.693L179.287 221.394L170.846 225.296L165.27 227.697Z" fill="#EA9B00"/>
</svg>
