<svg width="575" height="146" viewBox="0 0 575 146" xmlns="http://www.w3.org/2000/svg">
<rect width="575" height="146" fill="none" fill-rule="evenodd"/>
<g id="logo-bgneutral
">
<g id="icon">
<path d="M137.667 55.2121L138.072 58.0404H137.362L136.348 57.7374L108.449 35.4141L104.29 32.0808L100.942 29.5556L97.7971 27.6364L93.7391 25.5152L90.3913 23.899L87.3478 22.5859L83.087 21.3737L78.7246 20.6667L74.5652 20.1616L69.6956 19.7576L64.5217 20.1616L59.7536 20.9697L56.1014 21.5758L52.1449 22.7879L48.4928 24.202L44.5362 25.9192L40.8841 28.1414L37.8406 30.5657L35.2029 32.6869L32.6667 34.8081L30.029 37.4343L27.1884 40.7677L24.8551 44.101L22.8261 47.4343L20.7971 51.3737L19.2754 54.6061L17.6522 59.8586L16.8406 63.3939L16.4348 66.9293L16.029 70.2626L16.029 74.8081L16.4348 79.6566L17.2464 84.5051L17.9565 88.3434L18.971 92.1818L20.5942 95.4141L21.913 98.4444L23.2319 101.273L25.7681 105.212L28.6087 108.343L31.2464 111.576L35.2029 115.414L65.6377 140.162L68.8841 142.788V144H67.8696H65.3333L61.7826 143.697L58.5362 143.192L54.6812 142.485L50.9275 141.475L47.8841 140.566L44.8406 139.354L41.087 137.939L37.3333 135.919L33.5797 134L29.9275 131.778L26.0725 128.949L22.2174 125.717L18.4638 121.778L15.0145 117.939L12.4783 114.404L10.0435 110.667L8.11594 107.434L6.18841 103.293L4.36232 99.5556L2.43478 94.8081L1.31884 89.1515L0.811594 84.8081L0 77.3333L0 71.9798L0 67.0303L0.811594 61.6768L1.92754 57.0303L3.14493 52.9899L4.46377 48.9495L6.08696 45.0101L7.4058 42.1818L8.72464 39.5556L10.7536 36.3232L12.6812 33.4949L14.8116 30.5657L16.942 28.1414L19.5797 25.3131L21.5072 23.2929L24.2464 20.9697L27.1884 18.6465L29.8261 16.6263L32.2609 14.8081L34.7971 13.1919L37.8406 11.5758L39.7681 10.5657L43.9275 8.84848L47.4783 7.43434L50.5217 6.42424L54.3768 5.91919L58.3333 5.0101L63.1014 4.40404L66.9565 4L70.7101 4L73.9565 4L78.6232 4.40404L82.2754 5.0101L86.4348 5.91919L90.7971 7.13131L94.6522 8.34343L98.4058 9.65657L102.565 11.4747L106.217 13.596L109.464 15.7172L113.826 18.7475L117.58 21.7778L120.623 24.8081L123.362 27.6364L125.391 30.1616L127.522 33.0909L129.449 35.8182L130.87 38.4444L132.188 40.6667L133.507 43.3939L134.725 46.2222L135.638 48.3434L136.348 50.5657L137.058 52.7879L137.667 55.2121Z" fill="#EA9B00"/>
<path d="M64.6232 79.2525L119.101 123.091H119.913L128.13 113.192L128.739 111.879L128.13 110.768L75.1739 68.1414L73.3478 67.0303L71.0145 66.4243H68.8841L66.9565 67.0303L65.1304 68.1414L63.913 69.1515L63.2029 70.7677L62.4928 72.6869V74.6061L62.4928 76.4243L63.2029 77.8384L64.6232 79.2525Z" fill="#EA9B00"/>
<path d="M93.7391 139.758L90.6957 140.465L41.6957 100.566L38.8551 97.4343L36.3188 93.4949L33.9855 89.4545L32.4638 85.7172L31.9565 81.8788L31.1449 78.2424L31.1449 75.0101V72.3838V69.6566L31.7536 66.4242L32.4638 63.5959L33.9855 60.1616L34.8986 57.6364L35.8116 55.5151L36.8261 53.5959L38.4493 50.9697L39.971 49.0505L42 46.8283L43.7246 45.0101L45.5507 43.2929L48.1884 41.3737L50.6232 39.9596L53.058 38.4444L55.3913 37.4343L58.6377 36.1212L61.2754 35.4141L64.1159 34.9091L67.058 34.606H69.5942H71.9275L74.4638 35.1111L77 35.6161L79.5362 36.1212L81.6667 36.7273L83.8986 37.4343L86.029 38.4444L88.2609 39.5555L90.3913 40.6667L92.5217 42.0808L94.3478 43.5959L137.667 78.7475L139.594 80.5656L140 82.0808L136.348 96.4242H135.13L133.507 95.3131L86.029 57.1313L83.2899 55.1111L80.4493 53.5959L77.8116 52.3838L75.7826 51.5757L73.9565 51.1717L71.9275 50.9697H69.087L66.1449 51.1717L63.1014 51.5757L60.7681 52.3838L58.3333 53.5959L55.8986 55.1111L53.6667 57.1313L51.8406 59.3535L50.1159 61.7778L48.6957 63.5959L47.4783 65.7172L46.6667 68.8485V72.3838V76.5252L47.4783 80.5656L48.6957 83.4949L50.1159 86.4242L51.8406 88.6465L53.6667 90.5656L96.5797 125.414L104.493 131.475L106.217 132.788V133.697L103.174 135.515L97.4928 138.141L93.7391 139.758Z" fill="#EA9B00"/>
</g>
<path id="trademark" d="M221.7 130.476V110.788C221.7 99.748 215.904 93.768 202.38 93.768C196.86 93.768 190.42 94.964 184.348 97.356L187.292 106.096C192.26 104.44 196.952 103.52 200.172 103.52C206.336 103.52 208.912 105.452 208.912 111.524V113.916H203.3C188.856 113.916 180.852 119.712 180.852 130.384C180.852 139.216 186.924 145.472 196.676 145.472C202.472 145.472 207.808 143.448 211.304 138.112C213.328 142.988 217.008 144.828 222.528 145.288L225.288 136.64C222.896 135.812 221.7 134.432 221.7 130.476ZM200.264 136.088C196.216 136.088 194.008 133.604 194.008 129.28C194.008 123.944 197.504 121.368 204.588 121.368H208.912V130.66C206.888 134.156 204.036 136.088 200.264 136.088ZM255.085 93.768C240.825 93.768 231.809 104.532 231.809 119.988C231.809 135.536 240.733 145.472 255.269 145.472C261.709 145.472 266.861 143.356 271.277 139.768L265.573 131.58C261.985 133.88 259.501 134.984 255.913 134.984C249.749 134.984 245.609 131.212 245.609 119.896C245.609 108.58 249.473 103.888 256.005 103.888C259.593 103.888 262.445 104.992 265.573 107.384L271.277 99.656C266.677 95.7 261.617 93.768 255.085 93.768ZM318.554 118.516C318.554 102.968 310.366 93.768 296.566 93.768C282.306 93.768 274.394 105.176 274.394 119.896C274.394 135.168 282.582 145.472 298.222 145.472C305.858 145.472 311.93 142.712 316.714 138.848L311.286 131.488C307.054 134.432 303.558 135.72 299.418 135.72C293.162 135.72 288.746 132.96 287.826 123.576H318.278C318.37 122.196 318.554 120.172 318.554 118.516ZM305.582 115.388H287.826C288.47 106.188 291.69 102.692 296.842 102.692C303.098 102.692 305.582 107.476 305.582 114.836V115.388ZM353.124 93.86C347.512 93.86 342.728 97.908 340.428 104.716L339.324 95.24H327.916V144H340.98V119.068C342.636 111.064 345.488 106.556 351.468 106.556C353.124 106.556 354.32 106.832 355.884 107.2L358 94.596C356.436 94.136 354.872 93.86 353.124 93.86ZM389.233 133.42C387.209 134.524 385.461 135.076 383.713 135.076C380.401 135.076 378.837 133.236 378.837 128.452V104.44H388.773L390.061 95.24H378.837V83.004L365.773 84.568V95.24H358.505V104.44H365.773V128.728C365.773 139.584 370.925 145.38 381.045 145.472C385.369 145.472 390.153 144.184 393.741 141.7L389.233 133.42ZM404.663 129.74C400.339 129.74 396.843 133.328 396.843 137.56C396.843 141.884 400.339 145.472 404.663 145.472C409.079 145.472 412.575 141.884 412.575 137.56C412.575 133.328 409.079 129.74 404.663 129.74ZM428.604 70.124C423.912 70.124 420.692 73.436 420.692 77.76C420.692 82.084 423.912 85.396 428.604 85.396C433.296 85.396 436.608 82.084 436.608 77.76C436.608 73.436 433.296 70.124 428.604 70.124ZM435.136 95.24H422.072V144H435.136V95.24ZM468.468 93.768C453.748 93.768 445.008 104.072 445.008 119.62C445.008 135.812 453.84 145.472 468.376 145.472C483.004 145.472 491.744 135.076 491.744 119.62C491.744 103.428 483.004 93.768 468.468 93.768ZM468.468 103.52C474.816 103.52 478.128 108.396 478.128 119.62C478.128 130.752 474.816 135.72 468.376 135.72C461.936 135.72 458.624 130.844 458.624 119.62C458.624 108.488 461.936 103.52 468.468 103.52Z" fill="#EA9B00"/>
<path id="tagline" d="M192.124 17.284C189.308 17.284 187.152 19.044 185.92 22.52L185.524 17.812H182.048V41H186.096V27.756C187.064 23.312 188.736 21.244 191.64 21.244C192.476 21.244 192.96 21.332 193.664 21.508L194.412 17.548C193.708 17.372 192.872 17.284 192.124 17.284ZM215.676 28.724C215.676 21.64 212.376 17.284 206.128 17.284C200.144 17.284 196.492 22.432 196.492 29.648C196.492 36.996 200.276 41.528 206.744 41.528C209.956 41.528 212.552 40.428 214.84 38.624L213.08 36.204C211.056 37.612 209.34 38.228 207.052 38.228C203.708 38.228 201.2 36.16 200.804 30.792H215.588C215.632 30.264 215.676 29.516 215.676 28.724ZM211.672 27.8H200.804C201.112 22.652 203.136 20.496 206.216 20.496C209.868 20.496 211.672 23.004 211.672 27.536V27.8ZM229.974 11.256C231.162 11.256 232.526 11.476 234.022 12.136L235.298 9.188C233.45 8.396 231.954 8 229.754 8C225.046 8 222.494 10.772 222.494 14.644V17.812H218.358V20.936H222.494V41H226.542V20.936H231.734L232.174 17.812H226.542V14.6C226.542 12.356 227.422 11.256 229.974 11.256ZM246.78 17.284C243.964 17.284 241.808 19.044 240.576 22.52L240.18 17.812H236.704V41H240.752V27.756C241.72 23.312 243.392 21.244 246.296 21.244C247.132 21.244 247.616 21.332 248.32 21.508L249.068 17.548C248.364 17.372 247.528 17.284 246.78 17.284ZM268.441 35.588V24.984C268.441 20.144 265.889 17.284 260.301 17.284C257.705 17.284 255.153 17.812 252.293 18.868L253.305 21.816C255.681 21.024 257.837 20.584 259.553 20.584C262.765 20.584 264.393 21.816 264.393 25.16V26.876H260.829C254.361 26.876 250.621 29.56 250.621 34.532C250.621 38.668 253.393 41.528 258.013 41.528C260.829 41.528 263.293 40.472 264.921 38.052C265.625 40.34 267.121 41.264 269.453 41.528L270.377 38.712C269.189 38.272 268.441 37.612 268.441 35.588ZM258.937 38.492C256.297 38.492 254.933 37.04 254.933 34.312C254.933 31.144 257.089 29.56 261.357 29.56H264.393V34.884C263.073 37.304 261.313 38.492 258.937 38.492ZM299.898 17.284C296.774 17.284 294.662 18.956 292.99 21.464C292.11 18.824 289.998 17.284 287.138 17.284C284.102 17.284 281.99 18.868 280.45 21.2L280.098 17.812H276.622V41H280.67V24.544C282.21 22.08 283.618 20.452 286.126 20.452C287.886 20.452 289.382 21.464 289.382 24.94V41H293.43V24.544C295.014 22.08 296.378 20.452 298.886 20.452C300.646 20.452 302.142 21.464 302.142 24.94V41H306.19V24.368C306.19 20.012 303.682 17.284 299.898 17.284ZM331.649 28.724C331.649 21.64 328.349 17.284 322.101 17.284C316.117 17.284 312.465 22.432 312.465 29.648C312.465 36.996 316.249 41.528 322.717 41.528C325.929 41.528 328.525 40.428 330.813 38.624L329.053 36.204C327.029 37.612 325.313 38.228 323.025 38.228C319.681 38.228 317.173 36.16 316.777 30.792H331.561C331.605 30.264 331.649 29.516 331.649 28.724ZM327.645 27.8H316.777C317.085 22.652 319.109 20.496 322.189 20.496C325.841 20.496 327.645 23.004 327.645 27.536V27.8ZM351.563 6.68C349.891 6.68 348.747 7.868 348.747 9.452C348.747 10.992 349.891 12.18 351.563 12.18C353.279 12.18 354.423 10.992 354.423 9.452C354.423 7.868 353.279 6.68 351.563 6.68ZM353.631 17.812H349.583V41H353.631V17.812ZM375.559 8V20.144C374.019 18.516 372.039 17.284 369.311 17.284C363.635 17.284 360.203 22.432 360.203 29.516C360.203 36.732 363.327 41.528 368.959 41.528C371.819 41.528 374.151 40.12 375.647 37.788L376.043 41H379.607V8.484L375.559 8ZM369.839 38.316C366.495 38.316 364.559 35.544 364.559 29.428C364.559 23.4 366.715 20.496 370.191 20.496C372.479 20.496 374.107 21.684 375.559 23.532V34.884C374.019 37.04 372.435 38.316 369.839 38.316ZM405.34 28.724C405.34 21.64 402.04 17.284 395.792 17.284C389.808 17.284 386.156 22.432 386.156 29.648C386.156 36.996 389.94 41.528 396.408 41.528C399.62 41.528 402.216 40.428 404.504 38.624L402.744 36.204C400.72 37.612 399.004 38.228 396.716 38.228C393.372 38.228 390.864 36.16 390.468 30.792H405.252C405.296 30.264 405.34 29.516 405.34 28.724ZM401.336 27.8H390.468C390.776 22.652 392.8 20.496 395.88 20.496C399.532 20.496 401.336 23.004 401.336 27.536V27.8ZM422.542 17.284C419.506 17.284 417.042 18.868 415.458 21.244L415.106 17.812H411.63V41H415.678V24.544C417.218 22.08 418.978 20.452 421.574 20.452C423.818 20.452 425.226 21.464 425.226 24.94V41H429.274V24.368C429.274 19.968 426.81 17.284 422.542 17.284ZM447.407 37.26C446.263 37.876 445.339 38.184 444.327 38.184C442.303 38.184 441.555 37.084 441.555 34.752V20.936H446.615L447.055 17.812H441.555V12.092L437.507 12.576V17.812H433.459V20.936H437.507V34.928C437.507 39.24 439.839 41.528 443.755 41.528C445.735 41.528 447.407 41 448.947 39.944L447.407 37.26ZM454.989 6.68C453.317 6.68 452.173 7.868 452.173 9.452C452.173 10.992 453.317 12.18 454.989 12.18C456.705 12.18 457.849 10.992 457.849 9.452C457.849 7.868 456.705 6.68 454.989 6.68ZM457.057 17.812H453.009V41H457.057V17.812ZM475.465 37.26C474.321 37.876 473.397 38.184 472.385 38.184C470.361 38.184 469.613 37.084 469.613 34.752V20.936H474.673L475.113 17.812H469.613V12.092L465.565 12.576V17.812H461.517V20.936H465.565V34.928C465.565 39.24 467.897 41.528 471.813 41.528C473.793 41.528 475.465 41 477.005 39.944L475.465 37.26ZM498.013 17.812H493.833L487.761 38.052L481.557 17.812H477.245L485.033 41H486.397C485.077 44.608 483.757 46.412 479.049 47.204L479.489 50.372C485.913 49.668 488.641 46.06 490.269 41.132L498.013 17.812Z" fill="#EA9B00"/>
</g>
</svg>
